<svg xmlns="http://www.w3.org/2000/svg" width="611.305" height="614.986" viewBox="0 0 573.097 576.55" xmlns:v="https://vecta.io/nano"><path d="M122.599 574.857l-115-1-.16-13-3.864-204.22c-.529-10.571-1.55-93.487-2.268-184.258L0 7.341l4.82-3.158C9.128 1.36 35.828.941 256.618.235l278.959.416 31.98 1.206 1.268 9c1.484 10.54 4.218 301.936 4.268 454.833.04 100.962-.136 105.959-3.692 108.559-3.885 2.84-164.89 3.059-446.802.608zm378.87-13.79c.609-.985-.463-2.416-2.382-3.18-6.977-2.778-103.761-26.777-113.488-28.141-30.917-4.334-57.913-22.228-69.963-46.374-11.517-23.078-12.003-31.047-11.918-195.515.088-166.974.392-171.564 12.892-193.712 17.339-30.723 67.514-52.341 100.328-43.227 11.264 3.128 16.526 8.219 14.957 14.468-1.787 7.12-7.853 8.634-14.726 3.678-3.064-2.21-8.046-4.608-11.071-5.329-4.697-1.12-5.5-.686-5.5 2.976 0 9.715 11.956 20.146 23.092 20.146 12.598 0 24.386-14.007 21.636-25.71-1.649-7.019-10.123-15.943-18.472-19.454-3.835-1.613-13.324-2.834-22-2.831-14.34 0-56.986 5.352-79.256 9.939-17.103 3.522-95.076 4.868-127.921 2.207-36.308-2.941-94.072-12.548-116.63-19.398-20.772-6.308-26.22-5.797-16.437 1.539 9.274 6.955 40.191 16.792 64.989 20.678 66.684 10.45 78.856 16.687 89.027 45.626 3.764 10.709 4.028 16.405 4.024 86.711l-1.315 90.972-1.311 15.722 14.788-.04c16.85-.04 18.937-.885 20.846-8.489 1.893-7.544 6.566-6.866 10.044 1.456 3.4 8.138 3.982 41.303.828 47.196-2.677 5.002-8.693 4.952-12.186-.1-2.534-3.666-3.798-3.818-16.475-1.976-7.552 1.097-14.527 2.487-15.5 3.088s-1.771 12.066-1.774 25.476c0 78.529-11.538 126.395-36.606 152.071-17.897 18.331-35.921 24.52-66.618 22.872-22.568-1.211-34.205-5.718-37.958-14.7-5.147-12.319 5.164-25.677 16.937-21.94 4.84 1.536 7.53 8.599 4.448 11.68-7.295 7.295 8.42 10.68 17.424 3.754 8.908-6.854 4.638-23.22-7.815-29.954-6.558-3.546-30.083-1.99-36.839 2.437-16.128 10.568-17.253 36.418-2.172 49.929 7.648 6.852 21.01 11.413 39.726 13.561 19.186 2.202 55.692 1.118 76.478-2.269 6.6-1.076 17.4-2.46 24-3.076l29.911-3.117c25.099-2.8 80.395-2.214 117.089 1.24 48.416 4.557 58.575 6.014 124 17.786l16.382 2.904c.76.112 1.88-.6 2.488-1.585zm50.601-14.741c2.055-1.589 2.402-25.91.655-45.908-.068-.792-6.85-4.719-15.069-8.726-16.484-8.038-19.708-10.81-17.937-15.426 2.088-5.44 6.831-5.5 17.25-.22 9.356 4.741 10.408 4.891 13.392 1.908 2.262-2.262 3.332-7.284 3.55-16.666.172-7.386.968-21.568 1.77-31.516 1.83-22.708.136-25.358-14.486-22.666-5.278.972-10.947 2.298-12.597 2.946-9.213 3.622-25.571 6.846-29.604 5.834-7.171-1.8-4.928-8.866 4.334-13.659 4.252-2.2 12.352-4.416 18-4.923 15.461-1.39 19.301-5.862 19.144-22.294-.084-8.959-1.838-17.931-5.5-28.148-5.2-14.509-5.729-15.176-16.287-20.5-21.584-10.885-34.028-5.89-45.252 18.162-11.296 24.208-11.488 24.542-15.215 26.537-1.946 1.042-5.889 1.304-8.762.582-6.035-1.515-5.892-3.872 1.209-20.018 6.42-14.597 4.638-19.75-8.987-25.988-13.816-6.325-28.868-8.15-39.173-4.749-9.149 3.02-9.702 5.577-3.951 18.251 5.905 13.014 5.358 24.687-1.456 31.03-4.804 4.472-6.766 4.991-15.5 4.098-5.5-.562-16.04-3.44-23.421-6.397-11.654-4.668-14.321-5.078-20.258-3.119-10.895 3.596-14.324 8.83-14.296 21.816.04 14.542 1.775 20.557 8.152 28.136 4.289 5.098 6.64 6.154 13.693 6.154 4.683 0 11.578-1.529 15.322-3.398 14.68-7.328 27.444-2.607 24.852 9.194-1.636 7.448-4.797 9.392-18.045 11.095-21.865 2.811-23.638 3.423-30.562 10.554-6.644 6.841-6.896 7.634-5.901 18.597 1.227 13.533 5.472 20.826 14.659 25.186 3.688 1.75 10.626 6.632 15.416 10.849 16.667 14.671 33.136 10.13 44.484-12.264 4.964-9.797 9.861-14.003 14.404-12.374 3.246 1.164 3.129 7.022-.408 20.312-2.525 9.488-2.498 11.655.236 18.482 2.523 6.304 4.582 8.18 11.139 10.145 6.696 2.006 9.537 1.873 16.946-.791l8.901-3.201 5.175 5.808c8.968 10.065 15.052 7.213 17.48-8.192 1.747-11.084 5.922-18 10.866-18 5.306 0 6.418 4.61 3.824 15.849-1.982 8.585-1.782 10.565 1.655 16.451 5.053 8.652 11.122 11.579 24.689 11.907 6.05.148 13.7.892 17 1.656 6.299 1.459 10.354.788 14.471-2.395zm-35.115-26.968c-22.592-22.778-43.264-40.5-47.244-40.5-2.75 0-9.176 11.443-13.758 24.5-.676 1.925-2.279 3.5-3.563 3.5-3.676 0-.752-15.476 6.257-33.12 6.476-16.303 6.654-21.29 1.412-39.565-2.155-7.514-19.81-27.314-24.355-27.314-1.28 0-2.105 5.684-2.105 14.5 0 17.384-4.856 27.206-20.848 42.164-5.602 5.24-11.631 11.734-13.398 14.431-3.144 4.798-8.754 6.743-8.754 3.034 0-1.028.928-4.311 2.063-7.295l2.062-5.425-12.562 1.26c-6.91.693-14.588 1.831-17.063 2.528-5.831 1.644-6.315-4.352-.5-6.198 2.2-.698 4-2.109 4-3.135 0-2.318-8.584-2.331-18.5-.04-5.843 1.357-7.5 1.141-7.5-.978 0-6.944 21.651-10.556 40.644-6.781 11.864 2.358 13.422 2.251 19.595-1.354 3.688-2.154 9.418-7.779 12.734-12.5 5.464-7.781 6.018-10.018 5.93-23.904-.064-9.693-1.312-18.082-3.405-22.838l-3.308-7.518-11.842 6.018c-13.252 6.734-24.408 7.717-35.412 3.12-3.814-1.594-6.936-4.294-6.936-6 0-3.632 2.467-3.85 12.013-1.06 4.902 1.433 9.864 1.363 16.631-.236 8.017-1.892 10.193-3.428 12.9-9.104 1.878-3.939 5.232-7.324 7.926-8 5.071-1.273 9.232-7.914 11.471-18.309 2.227-10.339 6.206-6.658 5.206 4.816-.469 5.384-.919 12.94-1 16.79l-.148 7 14-.128c16.992-.156 30.832-4.348 55.937-16.939 19.744-9.902 24.118-9.432 12.563 1.348-12.52 11.68-34.408 21.297-54.062 23.752-6.32.79-11.907 2.108-12.415 2.931s3.583 5.296 9.092 9.941 13.55 13.229 17.868 19.074c10.285 13.922 21.341 18.674 35.279 15.165 5.154-1.298 11.229-3.661 13.499-5.251 5.975-4.185 7.842-3.572 6.417 2.109-1.482 5.902-.826 6 11.684 1.737 7.711-2.628 9.887-2.76 11.171-.682 2.466 3.99.06 7.851-5.755 9.237-2.904.692-6.408 2.148-7.788 3.234-4.738 3.732-37.174 4.298-47.364.826-10.915-3.719-12.48-2.189-10.2 9.968 1.068 5.691 6.081 12.164 22.837 29.485 20.527 21.22 29.306 31.62 36.878 43.694 6.533 10.416-.878 5.553-18.286-12zm-477.974 25c2.343-1.861 3.457-7.866 4.357-23.5.665-11.55 3.021-27.689 5.235-35.865 5.677-20.965 5.541-21.628-5.416-26.324-12.044-5.163-12.519-4.572-19.342 24.022-8.546 35.815-10.3 54.686-5.822 62.667 1.384 2.468 17.595 1.695 20.988-1zM170.9 502.696c6.176-3.306 10.116-14.698 8.593-24.85-1.432-9.549-8.279-17.841-12.551-15.201-2.044 1.263-1.652 3.414 1.843 10.119 3.469 6.655 4.026 9.67 2.553 13.804-1.67 4.684-2.943 5.289-11.132 5.289-11.426 0-13.066 1.474-8.832 7.938 3.622 5.528 12.228 6.807 19.526 2.902zm-28.301-25.769c0-4.234-6.833-9.028-10.041-7.045-1.078.666-1.959 3.407-1.959 6.092 0 4.091.972 4.882 6 4.882 4.631 0 6-.897 6-3.93zm-7.948-16.907c43.908-9.309 74.075-37.538 69.004-64.569-1.738-9.266-4.806-7.678-12.359 6.398-3.466 6.461-7.966 13.942-10 16.626l-4.697 6.243c-.55.75-5.334 4.634-10.631 8.632-27.671 20.881-72.856 22.05-109.972 2.844-13.562-7.018-19.439-13.345-23.32-25.104-2.748-8.328-2.026-16.162 2.912-31.562 1.055-3.29.296-4.914-3.167-6.766-3.944-2.111-5.034-1.844-8.138 1.989-8.968 11.074-9.884 29.866-2.22 45.518 14.757 30.138 68.474 49.104 112.588 39.752zm192.784-24.378c4.158-1.596 4.078-10.56-.108-12.167-3.482-1.336-9.024 1.268-10.198 4.792-.388 1.169.746 3.579 2.524 5.357 3.682 3.682 3.542 3.646 7.783 2.018zm-182.836-2.738c0-1.074-1.797-4.898-3.992-8.5-2.862-4.694-3.995-10.086-4-19.043 0-11.526.547-13.108 7.146-20.412 5.133-5.682 9.511-8.385 15.5-9.569 6.409-1.268 8.346-2.564 8.346-5.587 0-6.189-13.291-4.879-23.674 2.334-18.916 13.139-23.183 42.244-8.831 60.23 2.355 2.952 9.505 3.364 9.505.548zm-67.678-15.741c21.33-30.53 62.796-65.424 96.462-81.172 23.589-11.034 42.804-16.292 73.833-20.203 9.389-1.183 9.602-1.362 9-7.572l-.616-6.36-13 .609c-19.522.915-39.93 5.585-63.667 14.568-30.421 11.513-28.792 11.187-28.006 5.601 1.762-12.517-19.343 3.291-58.56 43.862-28.314 29.292-37.768 42.166-37.768 51.436 0 5.084 7.171 11.365 11.936 10.455 1.615-.308 6.288-5.359 10.385-11.223zm35.233-7.421c5.772-4.042 5.632-8.016-.421-11.982-3.785-2.48-5.784-2.697-9-.976-5.092 2.725-5.474 11.093-.634 13.911 4.623 2.693 4.886 2.668 10.055-.953zm46.21-2.886c5.007 0 24.716-18.282 32.08-29.758 6.886-10.73 10.998-28.87 7.876-34.742-3.92-7.374-8.222-2.18-10.659 12.872-1.914 11.82-15.73 30.573-28.064 38.093-9.896 6.034-14.269 11.597-11.384 14.482.648.648 2.424.7 3.946.116s4.315-1.062 6.205-1.062zm-96.176-32.341c.348-1.812-1.094-4.952-3.208-6.977-6.107-5.852-13.461-18.779-17.316-30.44-4.728-14.3-3.322-34.079 3.97-55.844 5.982-17.854 5.289-21.894-3.057-17.805-6.968 3.414-11.801 14.466-15.534 35.529-2.685 15.147-2.804 20.004-.738 30.008 3.596 17.412 8.544 27.533 19.292 39.464 9.452 10.493 15.326 12.64 16.592 6.064zm326.411-15.439c0-5.802-16.49-26.887-26.84-34.32-5.086-3.652-8.933-7.58-8.55-8.729s5.704-5.015 11.826-8.592c14.413-8.422 35.565-35.966 35.565-46.313 0-3.372-7.118-8.17-8.827-5.949-.288.376-3.29 4.733-6.67 9.683-13.856 20.296-33.16 34.006-53.806 38.212-12.076 2.46-12.324 2.644-13.498 9.988-1.57 9.819.088 13.604 6.521 14.889 10.298 2.057 27.403 11.954 36.281 20.991 10.868 11.063 15.278 13.779 22.498 13.859 4.081.044 5.5-.914 5.5-3.719zM76.162 329.529c25.859-18.453 55.518-26.526 81.251-22.119 22.895 3.922 31.091-4.942 10.802-11.681-12.116-4.024-34.605-4.452-49.616-.943-21.676 5.066-57.173 24.786-60.936 33.852-1.511 3.641.624 10.218 3.317 10.218 1.161 0 7.993-4.197 15.182-9.328zm476.112 3.571c1.472-.932 2.372-3.844 2-6.469-.505-3.571-1.928-4.774-5.648-4.774-5.655 0-7.792 5.464-3.948 10.096 2.766 3.333 3.882 3.501 7.595 1.147zm-24.838-19.457c4.146-1.591 4.081-10.006-.092-11.606-4.001-1.536-8.746 2.117-8.746 6.732 0 5.691 2.752 7.209 8.836 4.874zm-47.962-10.693c15.497-11.448 16.542-18.264 4.856-31.662-7.291-8.36-7.214-10.43.388-10.43 4.601 0 8.745 2.482 16.693 10 6.015 5.689 12.448 10 14.92 10 6.364 0 17.568-7.804 31.953-22.255l12.686-12.745-1.23-17.714c-1.456-20.959-3.511-26.044-9.764-24.158-2.408.727-6.628 3.287-9.378 5.689-7.392 6.458-22.552 13.182-29.719 13.182-3.454 0-6.281.781-6.281 1.736 0 2.222 21.384 8.264 29.249 8.264 3.293 0 7.734 1.333 9.869 2.962 3.36 2.564 3.479 3.232.882 4.969-5.253 3.515-19.86 2.23-35.322-3.106-8.247-2.846-15.383-4.786-15.858-4.312s1.386 4.179 4.135 8.23c7.426 10.943 11.045 18.553 11.045 23.228 0 6.942-7.488 1.235-12.577-9.585-6.234-13.255-28.322-35.936-37.369-38.372-9.758-2.628-34.054 4.394-34.054 9.841 0 .964 2.475 2.631 5.5 3.704 12.901 4.575 27.305 26.246 23.696 35.65-1.843 4.804-4.151 3.156-12.84-9.164-7.51-10.649-9.626-12.302-19.367-15.134-6.015-1.749-11.773-2.662-12.795-2.031s-4.216.252-7.098-.844c-4.951-1.882-5.168-2.533-3.936-11.816 1.177-8.873.845-10.116-3.428-12.833-2.602-1.655-10.356-3.632-17.232-4.394-8.73-.968-12.5-2.231-12.5-4.189 0-1.542 1.125-2.872 2.5-2.957s4.3-.521 6.5-.972c8.835-1.809 21.88 1.698 27.602 7.419 3.138 3.138 6.212 5.706 6.83 5.706 2.907 0-1.964-21.942-7.496-33.77-9.86-21.082-16.682-26.315-38.131-29.249-21.356-2.922-27.542-8.981-9.169-8.981 16.001 0 29.453 4.817 40.467 14.491l9.688 8.509-3.896-6.776c-2.143-3.727-9.191-10.927-15.662-16-24.764-19.413-32.326-27.798-28.512-31.613 1.153-1.153 18.992 12.528 35.456 27.192 5.436 4.842 10.346 8.339 10.913 7.773s.04-7.522-1.209-15.458c-1.231-7.935-1.635-15.032-.897-15.77 4.021-4.022 12.607 22.267 17.359 53.152 2.589 16.825 4.018 19.296 7.451 12.882 3.05-5.699 20.384-21.808 31.11-28.911 14.382-9.524 17.158-14.359 19.338-33.682 2.133-18.91 4.895-27.45 7.906-24.44 2.617 2.617 2.95 11.021 1.038 26.151-1.062 8.4-.891 12.5.52 12.5 5.211 0 17.53-16.68 26.957-36.5 5.624-11.825 10.926-21.5 11.781-21.5 4.572 0-4.123 31.535-12.38 44.894-2.236 3.618-4.065 7.146-4.065 7.842s4.275 1.354 9.5 1.463c12.759.268 19.35 2.306 20.103 6.217.507 2.633-1.929 3.49-12.99 4.57-13.964 1.363-38.486 7.888-45.614 12.136-21.144 12.603-34.408 22.746-42.57 32.552-9.463 11.372-16.014 23.409-13.894 25.53.592.592 4.538-.688 8.769-2.844 8.726-4.445 27.601-10.36 33.057-10.36 2.215 0 3.637 1.457 3.637 3.728 0 6.081 16.117 11.272 35 11.272 13.353 0 17.984-.929 27.994-5.616 17.27-8.086 21.006-12.19 21.006-23.076 0-18.616-12.692-21.937-27.616-7.224-9.626 9.49-16.724 11.165-18.041 4.257-2.184-11.454 8.093-21.338 31.474-30.272 14.349-5.483 19.087-10.596 17.861-19.272-.501-3.541-3.428-6.109-11.171-9.798-5.771-2.75-10.496-5.527-10.5-6.172s3.363-5.498 7.482-10.785c6.646-8.531 7.644-11.326 8.864-24.828.756-8.368 2.016-19.131 2.801-23.917 1.735-10.586-.696-12.828-12.154-11.212-17.536 2.473-19.934 3.642-33.397 16.286-7.562 7.102-14.391 12.594-15.176 12.206l-6.846-3.426c-4.702-2.36-6.086-2.282-10.474.594-2.781 1.822-6.902 6.93-9.158 11.352-2.564 5.028-6.695 9.276-11.026 11.341-8.132 3.878-7.772 2.717-7.857 25.309-.056 14.668-.674 18.137-3.567 19.99-5.667 3.63-9.685-.662-14.482-15.468-2.415-7.454-6.715-15.876-9.556-18.717-4.638-4.637-7.179-5.287-24.864-6.359-17.768-1.076-20.692-1.831-29.823-7.694-5.568-3.575-12.047-6.5-14.398-6.5-5.634 0-10.372 9.305-10.39 20.401 0 8.716-3.166 15.085-11.487 23.207-12.178 11.886.528 33.888 21.587 37.379 12.404 2.056 16.273 4.46 15.534 9.648-.572 4.021-1.746 4.365-14.906 4.365-11.238 0-15.183.812-18.5 3.81-5.598 5.059-5.546 16.903.132 30.607l4.35 10.494-5.35 10.573c-2.942 5.816-5.35 11.517-5.35 12.67 0 3.463 10.494 12.422 18.436 15.74 14.623 6.108 21.507 3.894 35.425-11.394 11.199-12.302 18.882-12.521 31.639-.902 5.765 5.251 5.663 9.114-.598 22.804-5.39 11.782-5.29 20.126.296 24.762 2.319 1.925 5.266 1.883 13.942-.2l11.001-2.639 7.429 7.076c14.762 14.062 20.221 14.309 37.303 1.689zm74.773-6.757c.588-5.115.132-5.571-4.983-4.983-6.198.712-8.945 6.952-4.361 9.905 4.68 3.014 8.674.91 9.344-4.922zM73.269 284.525c2.574-4.087-1.34-9.668-6.78-9.668-4.588 0-7.01 7.241-3.739 11.182 3.026 3.646 7.692 2.975 10.519-1.514zm26.963-1.168c-.73-6.341-8.783-9.042-10.856-3.64-1.98 5.16.76 9.14 6.293 9.14 4.488 0 5.11-.749 4.563-5.5zm80.172-6.798c5.405-15.505.832-34.062-10.474-42.503-7.008-5.233-8.831-2.793-4.577 6.128 2.836 5.948 3.216 10.181 2.082 23.186-1.094 12.541-.8 16.282 1.389 17.668 5.37 3.401 9.374 1.852 11.581-4.479zm154.974 3.154c1.915-4.991-2.455-11.183-7.394-10.476-4.451.636-6.587 5.604-4.617 10.738 1.488 3.877 10.498 3.681 12.011-.26zm-184.522-13.355c3.53-8.365 2.882-25.382-1.391-36.572-4.733-12.393-2.952-15.721 7.67-14.337 4.655.607 13.696 2.27 20.091 3.696 13.304 2.966 18.716 1.118 26.179-8.938 5.218-7.031 5.478-23.38.523-32.814-4.961-9.446-12.981-12.747-31.993-13.17-15.915-.356-16.351-.495-16.93-5.468-.372-3.203.958-6.509 3.573-8.876 3.612-3.269 5.042-3.455 10.736-1.396 16.39 5.926 27.216 1.933 32.18-11.87l3.563-9.908-6.531-20.076c-4.338-13.333-7.956-21.009-10.773-22.855-4.958-3.249-30.432-8.916-40.076-8.916-5.166 0-8.106 1.645-13.092 7.324-6.836 7.785-6.87 8.185-2.81 32.787 2.489 15.083-12.866 15.522-17.041.487-2.684-9.664-2.662-15.611.096-25.541 1.813-6.532 1.625-9.019-1.061-14-5.789-10.735-13.5-13.654-39.48-14.942-26.513-1.315-30.896-3.468-32.929-16.176-1.873-11.712-4.106-13.812-8.772-8.249-6.627 7.901-8.744 19.554-6.376 35.088 1.952 12.805 1.793 14.193-2.254 19.668-4.561 6.169-5.731 19.02-2.742 30.126 1.762 6.546 6.554 8.739 26.917 12.312 8.028 1.409 16.306 4.158 18.5 6.144 4.759 4.307 5.135 12.421.857 18.528-3.864 5.517-9.143 5.686-13.886.445-3.984-4.402-14.688-5.378-21.135-1.928-5.002 2.677-9.06 12.537-10.75 26.122-.74 5.943-2.695 17.743-4.344 26.223-3.55 18.245-2.722 20.589 10.337 29.238 11.305 7.488 28.966 10.417 36.8 6.103 2.95-1.624 7.907-8.443 11.782-16.207 6.755-13.533 10.968-16.882 18.305-14.554 4.491 1.425 7.542 10.347 4.799 14.031-7.67 10.301-9.518 14.387-10.331 22.852-.762 7.931-.172 10.41 3.305 13.886 4.742 4.742 15.629 5.628 25.762 2.096 5.053-1.761 7.472-1.426 13.798 1.912 11.27 5.946 15.684 5.415 18.929-2.276zM31.521 216.731c-.723-1.17 3.949-7.716 10.382-14.548s14.154-15.298 17.158-18.814 9.263-8.332 13.909-10.702c7.207-3.677 10.466-4.122 22.203-3.031l13.757 1.279-1.368-6.53c-3.99-19.044-14.935-32.964-38.962-49.553-15.224-10.512-24-24.852-24-39.216 0-15.548 6.494-12.672 8.9 3.94 1.183 8.172 3.042 11.322 11.802 20 5.719 5.665 17.23 15.7 25.581 22.3 9.318 7.364 16.939 15.284 19.728 20.5 2.499 4.675 5.571 8.5 6.826 8.5s5.065-2.925 8.467-6.5 9.979-8.75 14.616-11.5c14.953-8.868 24.928-17.006 29.522-24.084 7.088-10.921 9.195-13.003 10.177-10.057.463 1.388-1.64 7.427-4.672 13.42-5.444 10.761-14.122 19.568-24.578 24.947-18.313 9.421-30.37 22.169-30.37 32.112 0 5.126 7.128 19.791 10.731 22.077 1.226.778 4.257.088 6.734-1.536 8.59-5.628 32.534-6.247 32.534-.841 0 1.079-3.375 2.052-7.5 2.161s-9.75.841-12.5 1.626c-4.459 1.272-4.931 2.332-4.365 9.801l.635 8.374h-9.504c-5.587 0-13.103 1.743-18.239 4.229-4.805 2.326-9.251 3.714-9.88 3.085s1.218-3.952 4.104-7.382c6.718-7.984 6.645-13.881-.252-20.313-8.213-7.66-13.179-9.618-24.39-9.618-9.914 0-10.542.364-26.632 15.5l-17.478 16.7c-1.186 1.424-9.297 5.8-10.75 5.8-.558 0-1.605-.957-2.328-2.126zm176.584 49.82c3.222-3.223-.542-9.694-5.64-9.694-4.421 0-6.92 4.372-5.144 9 1.365 3.557 7.524 3.953 10.783.694zM379.599 72.857c0-3.573-1.212-5.173-4.246-5.606-4.633-.661-7.358 3.705-5.437 8.711 1.991 5.189 9.683 2.722 9.683-3.106zm95.994-33.982c1.632-5.142-.224-8.018-5.175-8.018-4.38 0-6.865 4.39-5.096 9 1.673 4.36 8.792 3.679 10.271-.982zm28.984-.992c3.323-4.004 1.11-9.026-3.979-9.026-2.269 0-4.648 1.362-5.286 3.026-1.149 2.995 2.373 8.974 5.286 8.974.831 0 2.621-1.338 3.979-2.974zM282.536 32.08c11.22-5.866 24.187-6.894 28.063-2.223 3.442 4.148 6 3.752 6-.93 0-9.244-15.822-10.597-33.251-2.845-10.224 4.548-13.565 5.084-25.749 4.13-7.7-.602-19.4-2.932-26-5.176-20.064-6.824-47.911-4.474-58.608 4.946-6.364 5.604-2.875 6.528 7.864 2.083 12.001-4.967 28.259-5.366 43.749-1.073 31.905 8.841 42.716 9.044 57.932 1.088z"/></svg>