<svg xmlns="http://www.w3.org/2000/svg" version="1.1" xmlns:xlink="http://www.w3.org/1999/xlink" xmlns:svgjs="http://svgjs.com/svgjs" width="729.63" height="826.37"><svg id="SvgjsSvg1002" xmlns="http://www.w3.org/2000/svg" width="729.63" height="826.37" viewBox="0 0 729.63 826.37"><g id="SvgjsG1001"><g id="SvgjsG1000"><path d="M590.15,620.88c-30.64-4.84-57.02-20.2-77.05-45.19-14.05-17.53-25.36-36.34-32.14-58.12,22.59,5.05,23.93,5.23,34.3,1.74,2.53-.84,4.73-2.71,7.08-4.11-1.61-2.43-2.76-5.4-4.9-7.2-14.95-12.58-25.3-28.22-31.8-46.52-13.12-36.93-8.3-74.01-.19-110.95,6.57,6.37,5.44,18.38,15.52,23.55,9.77,5,19.21,5.85,29.11,2.78-6.65-15.06-14.88-29.21-19.08-44.48-1.27-4.63-2.11-9.36-2.84-14.1-.62-4.03,1.13-8.99,3.37-12.37,1.47-2.21,3.58-3.62,5.29-5.58,1.41-1.61,2.83-3.1,4.4-4.6,3.5-3.35,6.85-6.86,10.03-10.52,6.27-7.23,11.86-15.03,16.75-23.25,5.55-9.34,10.2-19.2,14.08-29.34,12.62-33.07,8.6-67.04,7.43-100.92-.19-5.38-4.21-5.67-8.35-4.64-1.34.33-2.68.67-4.01,1-1.56.39-1.93.23-2.16,1.78-.42,2.85,0,6.08,0,8.96-1.24.23-2.45.81-3.71.9-.4-3.35-.56-6.71-.5-10.08-.47.14-.69.22-1.17.34-9.06,2.3-18.1,4.62-27.18,6.8-14.52,3.47-28.26,9.18-39.91,18.25-19.55,15.21-35.7,32.97-42.34,58.23-7.28,27.66-25.33,44.72-54.35,49.25-3.63.57-6.93,3.16-10.37,4.81.3.93.6,1.84.9,2.77,2.24.23,4.74,1.21,6.65.54,3.76-1.32,7.77-1.26,11.65-.6,1.91.32,3.77.83,5.69,1.1,2.08.29,4.16.57,6.24.83,3.48.45,6.92.93,10.43.98,4.2.06,8.4.13,12.6.19,2.18.03,4.37.07,6.55.1,1.15.02,2.3.03,3.44-.1,4.58-.55,9.2-3.11,13-5.61,7.51-4.95,15.02-9.9,22.53-14.84,2.24-1.49,4.51-2.94,6.78-4.41.34.53.7,1.06,1.06,1.58-4.21,3.27-8.17,6.97-12.69,9.71-3.28,1.99-6.41,4.23-9.61,6.36-3.08,2.05-6.27,4.19-9.75,5.47-3.14,1.16-6.33,2.28-9.64,2.82-.7.12-1.4.21-2.11.28-3.13.32-6.31.28-9.44.21-4.11-.08-8.22-.27-12.33-.46-1.26-.06-2.52-.12-3.78-.17-5.82-.25-11.64-.59-17.43-.77-4.36-.13-6.9.07-8.07,5.15-8.75,38.02-16.99,76.04-19.73,115.16-2.26,32.04,1.04,63.7,5.47,95.11,2.28,16.19,8.9,32.06,15.31,47.32,18.42,43.86,45.34,81.82,82.08,112.37,13.45,11.18,25.76,23.29,34.41,38.65,6.93,12.31,13.29,25.13,13.21,39.48-.11,20.59-8.21,38.2-23.17,52.55-2.68,2.57-4.95,5.54-8.24,9.24,2.27,0,3.24.24,4.01-.04,17.86-6.45,36.23-11.81,53.39-19.78,20.82-9.67,28.54-29.89,21.92-51.82-2.2-7.27-4.85-14.44-7.91-21.39-4.53-10.29-9.6-20.35-13.82-29.23,11.87,3.03,24.17,7.08,36.81,9.14,16.25,2.64,32.03,1.06,46.24-9.11,16.63-11.91,25.06-30.16,37.1-45.98-25.1,7.91-50.6,4.61-75.06.76ZM523.1,221.2c.06-1.2.54-2.4,1.38-3.38,3.37-3.94,9.01-4.84,13.44-2.15.05.03.09.07.14.1.4.21.79.44,1.15.7,0,0,0,0,0,0,3.4,1.49,4.83,5.36,4.55,8.84-.04.45-.13.87-.25,1.28-.03.54-.1,1.07-.2,1.61-1.12,5.63-6.54,10.17-12.37,8.45-2.43-.72-4.16-2.42-5.38-4.5-.27-.34-.51-.7-.72-1.08-.22-.24-.43-.49-.58-.78-1.48-2.85-1.91-5.98-1.16-9.09Z" fill="#000" stroke-width="0"></path><path d="M327.59,347.06c-3.24-25.62-9.44-50.88-14.71-76.22-2.43-11.69-4.38-12.54-16.04-9.72-1.16.29-2.33.67-3.5.67-16.16.16-32.34.09-48.51.44-11.84.26-36.85-15.85-45.45-27.36,17.69,12.88,34.84,26.56,58.7,25.43,21.86-1.04,43.89-.36,65.43-11.21-2.23-.93-3.04-1.58-3.84-1.56-13.52.48-24.4-6.96-35.93-12.68-1.4-.7-2.81-1.39-4.12-2.23-5.05-3.23-9.58-8.93-12.12-14.33-2.86-6.08-6.32-11.9-7.76-18.57-3.71-17.22-13.49-30.1-24.07-42.92-17.09-20.72-40.42-31-65.3-38.55-6.17-1.87-12.48-3.21-18.93-4.85-.23,4.66-.39,8.07-.56,11.49-1.69.03-1.02.02-2.71.05-.33-3.84-.66-7.67-1-11.65-2.16-.11-4.53.14-6.68-.43-6.11-1.61-9.2.36-10.44,6.75-6.04,31.03-3.76,62.07,4.91,91.78,8.77,30.06,25.97,55.9,51.13,75.76,2.68,2.11,4.9,6.77,4.78,10.15-.66,19.18-6.08,36.85-18.13,52.23-2.66,3.4-4.28,7.61-6.71,12.05,23.53-2.87,41.69-11.94,49.95-34.37,1.13,15.16,1.63,29.53,3.41,43.72,2.43,19.33,1.74,38.41-1.71,57.52-4.68,25.82-17.53,46.76-37.07,64-2.38,2.11-3.61,5.51-5.5,8.5,14.95,5.93,28.99,3.96,44.12,1.63-2.68,5.5-4.78,9.7-6.81,13.94-9.47,19.85-19.82,39.58-36.9,53.65-13.02,10.72-27.99,19.73-43.34,26.82-15.44,7.11-32.34,11.72-49.8,10.98-16.52-.7-33.81,5.28-49.86-5.05,6.98,10.95,13.91,21.72,22.25,31.26,24.59,28.1,47.22,33.58,82.35,20.75,5.88-2.14,11.48-5.05,18.86-8.35-3.47,6.63-6.23,11.51-8.61,16.55-8.28,17.52-18.53,34.21-17.01,55.06.96,13.05,5.74,23.45,16.85,29.51,12.24,6.68,25.35,11.79,38.21,17.26,7.31,3.1,14.89,5.53,22.36,8.25.64-.86.59-.8,1.23-1.65-1.89-2.56-3.69-5.16-5.64-7.66-9.08-11.61-18.76-22.76-21.06-38.21-4.88-32.73,8.64-58.46,31.07-80.3,19.39-18.88,40.68-35.74,57.07-57.69,18.92-25.33,35.11-52.2,44.89-82.23,7.31-22.43,12.71-45.34,14.18-69.37,1.83-29.84,1.78-59.56-1.93-89.01ZM158.26,212.09c-1.48.89-3.02,1.43-4.45,1.41-4.1-.04-8.49-5.37-9.24-10.73-.68-2.98-.21-6.21,1.53-8.84.58-.88,1.29-1.63,2.08-2.24.02-.03.04-.05.06-.08.67-.76,1.57-1.19,2.53-1.36.01,0,.03,0,.04-.01.01,0,.02,0,.03,0,.34-.09.7-.14,1.05-.14.38-.06.77-.1,1.17-.11,1.99-.03,3.8.86,5.69,1.28.85.19,1.54.62,2.1,1.19,2.97,1.48,4.96,4.4,5.2,7.71.37,5.05-3.1,10.15-7.8,11.92Z" fill="#000" stroke-width="0"></path><path d="M618.28,395.05c-12.54,0-24.59-.19-36.64.04-16.66.31-16.66.44-16.76-15.88-.04-6.43.19-12.85-.19-19.26-.39-6.64-1.47-13.24-1.98-19.88-.4-5.14,1.21-7.27,7.38-7,16.06.7,32.17.24,49.62.24v-42.12c-.58-11.17-.55-11.24,10.59-11.24,12.37,0,24.73.41,37.08.13,5.01-.11,6.84,1.43,6.73,6.4-.31,12.59-.21,25.2-.49,37.8-.21,9.64-.36,9.67,9.62,9.58,12.84-.1,25.69-.09,38.51-.49,5.2-.16,7.98.9,7.87,6.9-.31,16.41-.3,32.81-.19,49.22.03,4.58-2.21,5.67-6.17,5.64-14.02-.14-28.06.09-42.08-.34-5.57-.17-7.57,1.37-7.37,7.13.39,11.39.04,22.82.09,34.24.03,10.32.09,10.37-10.59,10.59-12.59.26-25.2.21-37.8.74-4.78.2-6.34-1.37-6.28-5.97.13-11.41,0-22.83-.16-34.24-.06-4-.43-7.98-.79-12.22h0Z" fill="#000" stroke-width="0"></path><path d="M391.26,53.54c15.21,0,29.56-.01,43.91,0,17.37.03,15.17-2.37,15.22,14.7.04,12.77-.23,25.54,0,38.31.09,5.07-1.79,6.47-6.68,6.31-15.13-.5-30.26-.43-45.38-.91-4.99-.16-7.04.79-6.85,6.57.45,13.93-.16,27.9.03,41.84.06,3.73-.95,5.19-4.63,5.18-14.66-.06-29.31-.14-43.97.06-5.07.07-5.01-2.98-5.01-6.5.03-15.13,0-30.25,0-46.51h-55.18v-58.54h54.46c0-15.82.38-30.65-.17-45.46-.26-6.67,1.67-8.6,8.23-8.4,13.22.4,26.48.18,39.71-.18,5.24-.14,7.14,1.42,6.92,6.84-.5,12.51-.45,25.06-.61,37.59-.04,2.99,0,5.99,0,9.08v.03Z" fill="#000" stroke-width="0"></path><path d="M0,368.19h57.12v-54.93c7.88,0,15,.03,22.14,0,8.15-.04,16.34.2,24.46-.34,6.44-.43,9.29,1.4,8.94,8.22-.72,14.42-.94,28.87-1.34,43.31-.03.91.17,1.84.36,3.78,10.05,0,20.04.03,30.03,0,6-.03,12.01,0,17.98-.3,5.37-.29,7.96,1.57,7.88,7.27-.26,15.71-.35,31.41-.22,47.12.04,4.93-2.25,6.01-6.61,5.88-13.91-.4-27.82-.57-41.74-.81-2.56-.04-5.13,0-8.24,0,.84,14.58,1.66,28.3,2.39,42.02.53,9.97.27,10.17-9.47,10.18-12.71.03-25.44-.21-38.14.27-6.13.23-8.49-1.21-8.19-7.81.6-12.82.03-25.7.46-38.54.17-5.24-1.74-6.51-6.62-6.38-14.87.39-29.75.39-44.62.6-3.24.04-6.58.47-6.58-4.23C0,405.26,0,387.01,0,368.2h0Z" fill="#000" stroke-width="0"></path><path d="M280.22,712.81c16.06,0,32.2-.3,48.31.14,6.95.19,8.92-2.07,8.65-8.95-.56-14.48-.17-28.99-.17-43.92,1.93-.31,3.48-.8,5.04-.8,12.61-.01,25.23.5,37.81-.1,6.93-.33,8.65,2.37,8.54,8.54-.21,12.14-.03,24.27,0,36.4v8.4c3.46.23,6.23.57,9.01.57,15.22,0,30.46.04,45.68-.26,4.43-.09,5.91,1.47,5.88,5.74-.13,15.94-.19,31.88.04,47.83.07,4.81-1.78,6.14-6.31,6.1-17.58-.17-35.15-.07-54.1-.07,0,8.48.01,16.45,0,24.42-.01,7.85-.21,15.71-.07,23.56.09,5.33-2.71,6.52-9.39,5.58-10.61-1.5-21.37-1.29-31.99.11-8.42,1.12-10.4-1.18-10.25-7.36.36-13.32.13-26.64.44-39.97.11-4.91-1.47-6.64-6.55-6.53-14.98.34-29.97.13-44.96.24-3.38.03-6.17-.07-6.18-4.63-.07-17.61-.29-35.21-.4-52.82,0-.63.54-1.27.97-2.21h.01Z" fill="#000" stroke-width="0"></path><path d="M146.09,206.44c-.72-1.13-1.23-2.38-1.52-3.67.75,5.36,5.13,10.69,9.25,10.73,1.41.01,2.93-.52,4.4-1.39-.54.2-1.08.37-1.65.48-4.77.91-8.66-2.02-10.48-6.14Z" fill="#000" stroke-width="0"></path></g></g></svg><style>@media (prefers-color-scheme: light) { :root { filter: none; } }
@media (prefers-color-scheme: dark) { :root { filter: invert(100%); } }
</style></svg>