<?xml version="1.0" encoding="UTF-8"?><svg id="Layer_2" xmlns="http://www.w3.org/2000/svg" width="16" height="16" viewBox="0 0 16 16"><g id="Layer_2-2"><rect width="16" height="16" rx="2.7" ry="2.7" fill="#fff" stroke-width="0"/><g id="Layer_1-2"><path d="M6.69,10.71c0,.19-.43.45-1.29.78-.86.33-1.38.5-1.58.5-.09,0-.13-.03-.13-.08s.05-.12.15-.2c.1-.08.21-.16.34-.24.12-.08.2-.13.22-.15.2-.2.31-.43.35-.68.04-.25.06-.81.06-1.67v-.56c0-.98-.06-1.73-.18-2.27-.12-.53-.33-.8-.64-.8-.02,0-.04,0-.07,0-.03,0-.06.01-.08.03s-.05.02-.09.03c-.03,0-.06.02-.09.02-.03,0-.05.01-.08.01-.02,0-.04,0-.05-.01s-.02-.03-.02-.05c0-.1.11-.26.33-.48.22-.21.48-.41.79-.6s.58-.27.8-.27c.18,0,.34.06.48.19.14.13.25.28.32.46s.13.35.17.5c.04.15.06.26.06.35.4-.38.73-.66.99-.83.7-.45,1.46-.68,2.29-.68.59,0,1.1.18,1.53.53.43.35.68.8.76,1.33.02.11.03.31.03.6,0,.29,0,.56,0,.83s0,.62,0,1.08,0,.78,0,.98c0,.28.02.51.07.68s.09.27.14.3c.05.03.1.05.14.07s.07.03.07.05c0,.16-.21.42-.62.79-.41.37-.71.55-.9.55-.26,0-.43-.2-.51-.6-.09-.4-.13-.98-.13-1.75,0-.21,0-.56.01-1.05,0-.49.01-.86.01-1.11,0-.56-.21-1.04-.62-1.42s-.91-.58-1.47-.58c-.14,0-.28.01-.41.03-.13.02-.24.05-.34.08-.1.03-.19.08-.28.13s-.16.11-.22.15-.11.1-.17.17-.1.13-.13.16c-.02.03-.06.09-.1.15s-.07.11-.07.12c.02.26.03.94.04,2.05,0,1.11.04,1.84.1,2.2.02.09.03.15.03.16h0Z" fill="#231f20" stroke-width="0"/></g></g></svg>