<?xml version="1.0" encoding="UTF-8" standalone="no"?>
<svg
   xmlns:dc="http://purl.org/dc/elements/1.1/"
   xmlns:cc="http://creativecommons.org/ns#"
   xmlns:rdf="http://www.w3.org/1999/02/22-rdf-syntax-ns#"
   xmlns:svg="http://www.w3.org/2000/svg"
   xmlns="http://www.w3.org/2000/svg"
   version="1.1"
   id="svg24147"
   viewBox="0 0 208.715 213.18513"
   height="60.165581mm"
   width="58.904011mm">
  <defs
     id="defs24149" />
  <metadata
     id="metadata24152">
    <rdf:RDF>
      <cc:Work
         rdf:about="">
        <dc:format>image/svg+xml</dc:format>
        <dc:type
           rdf:resource="http://purl.org/dc/dcmitype/StillImage" />
        <dc:title></dc:title>
      </cc:Work>
    </rdf:RDF>
  </metadata>
  <g
     transform="translate(-544.42821,-254.35839)"
     id="layer1">
    <path
       id="path24706"
       d="m 622.42171,466.44277 -77.9935,-1.17238 0.48977,-104.11496 c 0.26938,-57.2632 1.09251,-104.7184 1.82918,-105.456 0.73665,-0.73758 47.47713,-1.34104 103.86771,-1.34104 l 102.52834,0 0,106.5545 0,106.5545 -26.364,0.0738 c -14.5002,0.0406 -61.46108,-0.45369 -104.3575,-1.0985 z m -56.13611,-6.62206 c 6.30777,-2.39822 20.98411,-16.20624 20.98411,-19.74259 0,-3.72319 -9.15632,-2.57247 -12.52857,1.57452 -2.27505,2.79773 -3.43789,3.09689 -4.27002,1.0985 -0.62898,-1.51044 -2.79133,-2.71481 -4.80524,-2.67639 -3.15558,0.0602 -3.07226,0.51571 0.60299,3.2955 4.22156,3.19304 4.22156,3.25825 0,6.45128 -2.34556,1.77408 -7.47778,3.25705 -11.40491,3.2955 -6.70869,0.0658 -9.44229,3.62649 -5.67558,7.39319 2.13255,2.13256 10.56955,1.79231 17.09724,-0.68951 z m 51.57402,-2.2163 c 5.53002,-1.05333 14.47845,-3.79824 19.88537,-6.09981 9.63413,-4.10094 9.71167,-4.21452 3.87624,-5.67913 -3.75504,-0.94245 -10.76378,0.12571 -18.97409,2.89148 -7.16077,2.41228 -18.79155,4.96169 -25.84626,5.66534 -18.42577,1.83787 -23.07383,3.03462 -21.52422,5.54197 1.45077,2.34736 24.74151,1.07853 42.58296,-2.31985 z m 29.82759,2.17348 c 5.73534,-1.4594 5.16491,-1.7065 -4.394,-1.90342 -6.04175,-0.12441 -12.46797,0.73207 -14.2805,1.90342 -4.01953,2.59764 8.46602,2.59764 18.6745,0 z m 79.13149,-2.40046 c 8.98694,-3.36244 12.08911,-5.57564 11.5481,-8.23875 -0.92226,-4.53986 -5.72021,-4.17972 -22.36437,1.67869 -15.42382,5.42889 -32.84771,5.83887 -50.68585,1.19261 -12.91851,-3.36483 -21.3885,-2.80192 -17.42826,1.15832 4.28437,4.28437 26.9927,8.52335 46.40272,8.66201 15.42587,0.11037 23.16245,-0.94891 32.52766,-4.45288 z m 23.02901,-2.60319 c 0,-3.96034 -1.53904,-9.39796 -3.42008,-12.0835 -3.47506,-4.96136 -9.76192,-6.69108 -9.76192,-2.68585 0,1.20835 0.95386,2.197 2.1197,2.197 3.23468,0 6.82154,8.0293 5.32686,11.92436 -0.72912,1.90004 -3.74987,3.45464 -6.71278,3.45464 -3.03195,0 -4.79349,0.96048 -4.02928,2.197 0.7468,1.20835 4.75975,2.197 8.91766,2.197 7.07739,0 7.55984,-0.45952 7.55984,-7.20065 z m -43.94,-3.9657 c 11.44474,-2.62888 21.97,-11.62327 21.97,-18.77452 0,-7.5472 -3.12683,-7.84763 -6.33125,-0.60835 -4.07277,9.20102 -14.14941,13.81575 -33.21475,15.21111 -15.95649,1.16783 -16.23436,1.28419 -8.788,3.67989 9.8997,3.185 14.28336,3.2668 26.364,0.49187 z m -146.60959,-1.02582 c 2.62688,-1.00802 2.43104,-2.65179 -1.18728,-9.96507 -4.21109,-8.51136 -4.22284,-9.04655 -0.41743,-19.01089 3.92166,-10.26875 14.90977,-22.54487 20.17943,-22.54487 1.54323,0 2.80587,-1.5496 2.80587,-3.44356 0,-4.10059 -6.83961,-2.68295 -15.379,3.18759 -6.41875,4.41264 -17.576,25.09255 -17.576,32.57699 0,5.23308 5.50068,20.40698 7.39771,20.40698 0.567,0 2.44653,-0.54323 4.1767,-1.20717 z m 34.56259,-3.18683 c 0,-1.20835 -0.98865,-2.197 -2.197,-2.197 -1.20835,0 -2.197,0.98865 -2.197,2.197 0,1.20835 0.98865,2.197 2.197,2.197 1.20835,0 2.197,-0.98865 2.197,-2.197 z m 19.773,0.0774 c 0,-2.86048 -7.44489,-6.66828 -13.03757,-6.66828 -5.55019,0 -5.77673,1.87107 -0.69368,5.72966 4.47784,3.39917 13.73125,4.03171 13.73125,0.93862 z m 9.74422,-4.24109 c 0.66855,-1.08173 -0.23009,-2.52151 -1.99699,-3.19954 -3.43318,-1.31744 -6.36524,1.422 -4.02585,3.7614 1.98613,1.98612 4.59874,1.74237 6.02284,-0.56186 z m 38.58978,0.005 c 0,-2.66001 -5.62848,-4.62906 -13.23202,-4.62906 -7.77312,0 -10.60975,3.73262 -3.82731,5.03623 9.16507,1.76158 17.05933,1.57316 17.05933,-0.40717 z m 43.82989,-1.20088 c 2.54724,-3.06926 1.86795,-22.17568 -0.88634,-24.92995 -0.69065,-0.69066 -4.60855,0.3431 -8.70645,2.29726 -6.87274,3.2774 -7.4245,4.2879 -7.11265,13.02651 0.18586,5.21043 1.3267,10.19987 2.53505,11.08762 3.65649,2.68639 11.38168,1.87874 14.17039,-1.48144 z m -20.02612,-5.32931 c 1.09432,-7.7345 -2.18933,-9.61148 -10.78205,-6.16314 -4.14107,1.66184 -9.50652,3.73332 -11.92322,4.6033 -4.19177,1.50892 -4.14121,1.72508 1.0985,4.69646 3.02088,1.71308 8.95277,2.87742 13.182,2.58736 6.22579,-0.42696 7.82945,-1.51654 8.42477,-5.72398 z m 50.89423,-5.86777 c 0,-1.3943 -2.14494,-4.41845 -4.76654,-6.72034 -4.50293,-3.9538 -4.68518,-3.96271 -3.2955,-0.16088 0.80907,2.21343 1.50248,7.15668 1.54091,10.985 0.0662,6.59584 0.23888,6.7371 3.2955,2.69588 1.7741,-2.34555 3.22563,-5.40544 3.22563,-6.79972 z m 13.89165,-11.25725 c -1.46645,-10.6989 -5.46219,-17.52141 -8.98621,-15.34343 -1.60848,0.99411 -1.29647,3.56987 0.98687,8.14691 2.17412,4.35816 2.84447,9.32938 1.92146,14.24943 -1.83563,9.78473 3.35997,16.98844 5.82531,8.07674 0.85557,-3.09271 0.96922,-9.90105 0.25257,-15.12965 z m -31.32874,11.0771 c 3.33958,-6.24007 0.89906,-12.40952 -5.39909,-13.64846 -3.12134,-0.61404 -3.59342,0.95132 -3.06002,10.14675 0.68122,11.74382 3.43745,12.88477 8.45911,3.50171 z m -52.05533,-1.60947 c 30.95052,-11.93768 44.9641,-23.53581 55.44482,-45.88814 4.54247,-9.68776 3.51638,-11.5769 -4.34299,-7.99596 -3.84115,1.75016 -5.77641,4.35392 -5.77641,7.77179 0,3.10407 -1.30526,5.13983 -3.2955,5.13983 -4.04488,0 -4.04488,-1.71223 0,-8.788 1.72689,-3.02087 3.17483,-10.18859 3.21765,-15.92825 0.0428,-5.73966 1.0665,-10.43575 2.27485,-10.43575 1.20835,0 2.197,1.66794 2.197,3.70654 0,2.88306 1.50362,2.27293 6.76793,-2.74625 5.95353,-5.67631 6.60784,-7.46602 5.4375,-14.87309 -2.48613,-15.7348 -16.89264,-39.19265 -30.01631,-48.87497 l -7.1883,-5.30337 -5.03864,4.73358 c -8.06607,7.57763 -8.28349,12.00613 -1.14627,23.34674 9.39644,14.93042 11.98963,25.03267 11.02256,42.94036 -1.48602,27.5175 -14.42907,48.23241 -37.47821,59.98259 -9.20825,4.6943 -15.8201,6.16051 -32.43726,7.19325 -32.96637,2.04881 -30.758,3.60095 -30.758,-21.61814 l 0,-21.5112 -10.43575,-1.34825 c -5.73967,-0.74152 -12.66022,-1.9832 -15.379,-2.75925 -4.5543,-1.3 -4.94325,-0.69939 -4.94325,7.63322 0,6.34286 0.93064,9.04424 3.1158,9.04424 6.05848,0 10.0662,-2.71768 10.0662,-6.82605 0,-2.28743 0.98865,-4.15895 2.197,-4.15895 1.25544,0 2.197,6.591 2.197,15.379 0,12.20556 -0.68002,15.379 -3.2955,15.379 -3.97259,0 -4.24726,-2.56343 -0.6591,-6.1516 2.05053,-2.05052 1.84131,-2.6364 -0.94156,-2.6364 -7.28913,0 -13.55436,9.38027 -15.96025,23.89556 l -1.59368,9.61506 45.8278,-1.04806 c 42.97185,-0.98273 46.76833,-1.41082 60.91987,-6.86908 z m -61.73483,-16.2563 c 0.64421,-4.53132 1.86881,-9.9689 2.72134,-12.0835 1.61512,-4.0062 -0.41083,-4.93041 -4.74226,-2.16336 -2.88615,1.84375 -3.59539,5.21719 -3.22613,15.34536 0.35529,9.74608 3.80803,9.02326 5.24705,-1.0985 z m 25.77125,6.1107 c 0,-1.17042 -1.48297,-1.55899 -3.2955,-0.86346 -1.81252,0.69555 -3.2955,1.65316 -3.2955,2.12806 0,0.47489 1.48298,0.86345 3.2955,0.86345 1.81253,0 3.2955,-0.95764 3.2955,-2.12805 z m -17.576,-2.26595 c 0,-1.20835 -0.98865,-2.197 -2.197,-2.197 -1.20835,0 -2.197,0.98865 -2.197,2.197 0,1.20835 0.98865,2.197 2.197,2.197 1.20835,0 2.197,-0.98865 2.197,-2.197 z m 9.12876,-5.78273 c -1.21935,-2.25708 -2.97171,-6.08107 -3.89412,-8.49777 -1.50441,-3.9415 -1.76112,-3.78299 -2.49284,1.53911 -1.01327,7.37014 3.33839,16.32798 6.4301,13.23628 1.43381,-1.43379 1.41911,-3.57091 -0.0432,-6.27762 z m 31.3336,3.66382 c 5.53775,-2.37378 10.06864,-4.8073 10.06864,-5.40783 0,-2.4731 -17.49159,-5.56229 -24.05833,-4.24894 -8.01353,1.60268 -10.68106,5.8799 -6.67645,10.70518 3.62711,4.37036 8.61489,4.11735 20.66614,-1.04841 z m 82.56964,-0.20785 c 0,-1.13704 -0.98865,-2.06733 -2.197,-2.06733 -1.20835,0 -2.197,1.54133 -2.197,3.42517 0,1.88384 0.98865,2.81414 2.197,2.06733 1.20835,-0.7468 2.197,-2.28813 2.197,-3.42517 z m -13.05711,-2.06568 c 9.98503,-2.77384 18.56306,-11.75285 22.85826,-23.92676 3.41847,-9.68898 4.47156,-32.19478 1.94754,-41.62136 -2.43238,-9.08438 -5.088,-0.41186 -5.12405,16.73379 -0.0509,24.23169 -8.91695,40.28193 -24.0653,43.56572 -9.83213,2.13136 -11.43181,2.96557 -10.03143,5.23145 1.70671,2.76151 4.52408,2.76485 14.41498,0.0176 z m -168.96434,-7.691 c 0,-1.14793 -1.06279,-2.44142 -2.36178,-2.87441 -1.29897,-0.43299 -2.36177,0.86048 -2.36177,2.87441 0,2.01392 1.0628,3.30742 2.36177,2.8744 1.29899,-0.43298 2.36178,-1.72647 2.36178,-2.8744 z m 95.7892,-1.84797 c 12.98704,0.39301 13.02799,0.31389 8.13859,-15.72803 -1.84147,-6.04175 -3.43747,-15.10438 -3.54669,-20.13918 l -0.19862,-9.15415 -9.71773,0 c -10.98609,0 -19.52814,-4.63866 -23.14004,-12.56588 -4.45421,-9.77595 -6.86604,-7.01387 -16.00987,18.33491 -7.10422,19.69455 -7.07812,22.11673 0.22322,20.72099 7.24188,-1.38438 12.38557,-12.62083 10.37631,-22.66718 -0.90651,-4.53254 -0.61673,-6.57658 0.80756,-5.69633 1.22177,0.75508 2.78441,9.06518 3.47254,18.46686 0.68812,9.40167 2.4094,20.30207 3.82509,24.22309 2.28751,6.33581 3.22279,6.94703 8.40466,5.4925 3.20687,-0.90015 11.0211,-1.47957 17.36493,-1.2876 z m 23.52233,-1.34209 c 3.73979,-4.13242 3.65219,-4.48986 -2.40573,-9.81708 -8.55574,-7.52371 -10.03375,-7.06554 -8.29484,2.57139 2.3771,13.17401 4.21145,14.4161 10.70057,7.24569 z M 559.59595,396.9407 c 3.06038,-1.17438 3.08185,-1.83793 0.19311,-5.96229 -1.78784,-2.55247 -3.87599,-9.35547 -4.64039,-15.11773 -0.7644,-5.76229 -2.90516,-11.72996 -4.75726,-13.26149 -2.98047,-2.46454 -3.22778,-1.26969 -2.15218,10.39744 1.01117,10.96782 5.16883,25.2655 7.34702,25.2655 0.31138,0 2.11578,-0.59465 4.00976,-1.32143 z m 168.28176,-0.87557 c 0,-1.20835 -1.48298,-2.197 -3.2955,-2.197 -1.81253,0 -3.2955,0.98865 -3.2955,2.197 0,1.20835 1.48297,2.197 3.2955,2.197 1.81252,0 3.2955,-0.98865 3.2955,-2.197 z m -107.653,-5.4925 c 0,-2.42922 -2.53704,-3.2955 -9.65143,-3.2955 -6.55238,0 -10.05753,1.0582 -10.91608,3.2955 -1.0195,2.65683 0.85092,3.2955 9.65147,3.2955 8.23848,0 10.91604,-0.80834 10.91604,-3.2955 z m 62.47147,-5.43813 c 3.09953,-1.17845 5.63553,-3.65007 5.63553,-5.4925 0,-3.77525 -3.42719,-4.49462 -5.4925,-1.15287 -0.74681,1.20835 -4.38648,2.197 -8.08817,2.197 -5.73344,0 -6.32523,0.48813 -3.99533,3.2955 3.21876,3.87836 4.45736,3.99795 11.94047,1.15287 z m 49.57553,1.1738 c 0,-2.3189 -4.21629,-3.29312 -5.47035,-1.264 -0.75899,1.22806 0.16134,2.23283 2.04519,2.23283 1.88384,0 3.42516,-0.43597 3.42516,-0.96883 z m 4.394,-10.19925 c 0,-5.3542 -5.13389,-4.59738 -6.20284,0.91439 -0.42045,2.16792 0.70031,3.66269 2.74625,3.66269 2.03801,0 3.45659,-1.87844 3.45659,-4.57708 z m -173.563,1.41125 c 0,-0.53286 -0.98865,-1.57986 -2.197,-2.32667 -1.20835,-0.7468 -2.197,-0.31083 -2.197,0.96883 0,1.27966 0.98865,2.32667 2.197,2.32667 1.20835,0 2.197,-0.43597 2.197,-0.96883 z m 103.259,-4.52367 c 0,-1.81253 -1.48298,-3.2955 -3.2955,-3.2955 -1.81253,0 -3.2955,1.48297 -3.2955,3.2955 0,1.81252 1.48297,3.2955 3.2955,3.2955 1.81252,0 3.2955,-1.48298 3.2955,-3.2955 z m 13.35974,-1.37313 c -8.0452,-26.39521 -15.30323,-37.80166 -12.7565,-20.04762 1.6747,11.67457 7.87684,25.20208 11.02403,24.04446 1.45926,-0.53679 2.23889,-2.33535 1.73247,-3.99684 z m -81.90614,-0.16477 c 4.59826,-4.59826 2.90789,-5.64245 -7.27589,-4.49461 -14.99519,1.69018 -29.19041,-4.45337 -33.36268,-14.43908 -7.05163,-16.87691 2.00704,-47.93647 16.19561,-55.52996 5.28203,-2.82685 7.0247,-8.58295 2.59849,-8.58295 -1.38097,0 -7.18788,4.69609 -12.90428,10.43575 -10.59186,10.63498 -15.34285,23.10603 -15.34285,40.27394 0,14.07274 9.68805,27.64749 23.0685,32.32322 9.10762,3.18262 23.84673,3.19008 27.0231,0.0135 z m 92.7134,-6.28127 c 0,-1.13704 -1.9773,-2.06733 -4.394,-2.06733 -4.8467,0 -5.98326,3.45775 -1.64775,5.01294 3.32318,1.19206 6.04175,-0.13334 6.04175,-2.94561 z m 38.84706,-4.34388 c 22.70877,-22.48402 28.91322,-88.38882 9.30889,-98.88073 -6.44874,-3.45127 -27.62626,-1.54499 -37.06596,3.33649 -10.61504,5.48925 -26.23378,20.63976 -31.08923,30.15725 -5.93255,11.62876 -8.07511,28.11754 -3.65361,28.11754 2.29581,0 3.65261,-3.05396 4.43306,-9.97812 1.5953,-14.15329 11.46675,-28.75978 26.25128,-38.84318 14.14702,-9.6486 25.0505,-12.30242 34.48675,-8.39381 8.56467,3.5476 11.65611,11.90608 11.56819,31.27748 -0.13133,28.93866 -7.28965,49.32379 -21.22459,60.44251 -7.80257,6.22568 -10.04884,11.63212 -4.83291,11.63212 1.57406,0 6.89222,-3.99039 11.81813,-8.86755 z M 596.4641,360.33079 c 3.09416,-4.87136 2.0026,-16.44222 -1.68459,-17.8571 -6.1286,-2.35175 -16.32679,-1.43142 -23.13171,2.08757 -5.25354,2.7167 -6.47506,4.63922 -5.93264,9.33725 0.5212,4.51435 2.505,6.55695 8.37255,8.62067 8.6044,3.02633 19.75694,1.93563 22.37639,-2.18839 z m 67.19712,0.17048 c -1.35789,-4.0737 -6.08751,-4.74937 -6.08751,-0.86963 0,1.91321 1.56536,3.47858 3.47858,3.47858 1.91323,0 3.08724,-1.17402 2.60893,-2.60895 z m 26.97367,-5.82324 c 7.84957,-6.35621 3.34732,-9.75979 -5.38089,-4.06781 -7.24483,4.72464 -8.29959,8.106 -2.52853,8.106 1.60735,0 5.16657,-1.81718 7.90942,-4.03819 z m -35.12203,-3.17194 c 1.88739,-1.472 4.06109,-4.35505 4.83043,-6.40679 0.81972,-2.18614 7.12983,-5.51245 15.24284,-8.03508 12.09942,-3.76218 13.7689,-4.93619 13.24746,-9.31586 -0.32814,-2.75618 -0.82247,-5.21191 -1.0985,-5.45719 -0.27603,-0.2453 -5.44513,0.42874 -11.48688,1.49784 -6.04175,1.06911 -14.69244,2.48935 -19.22375,3.15608 -6.95356,1.02312 -8.23875,2.05352 -8.23875,6.60518 0,2.96612 -0.77717,5.39295 -1.72705,5.39295 -0.94986,0 -1.59553,-3.70745 -1.43473,-8.23875 0.31188,-8.79163 -5.21858,-20.14266 -7.7882,-15.98495 -2.14595,3.47225 -8.78115,0.30693 -7.32285,-3.49332 1.02206,-2.66344 0.29831,-2.76521 -4.40978,-0.62006 l -5.6325,2.56636 4.8203,4.26475 c 2.65116,2.3456 3.78444,3.76032 2.5184,3.1438 -1.26603,-0.61649 -3.63496,-0.29703 -5.26427,0.70996 -2.31351,1.42982 -1.67352,3.11974 2.92173,7.71498 5.01638,5.01638 5.22572,5.67518 1.41954,4.46713 -9.51193,-3.01898 -2.58798,14.67837 7.30474,18.6706 6.84677,2.76302 17.36481,2.44847 21.32182,-0.63763 z m -19.90915,-16.36124 c 1.81252,-0.68997 3.98323,-2.31343 4.82381,-3.60768 0.84055,-1.29427 2.29489,-1.58659 3.23186,-0.64964 2.03548,2.03552 -3.40034,5.84908 -8.05567,5.65161 -2.92933,-0.12441 -2.92933,-0.27921 0,-1.39429 z m -5.28237,-8.52975 c -0.99429,-2.59107 -0.42015,-3.18004 2.14163,-2.197 1.92507,0.73872 3.91358,1.34312 4.41894,1.34312 0.50532,0 0.9188,0.98865 0.9188,2.197 0,3.57888 -6.00439,2.50065 -7.47937,-1.34312 z m -23.27863,23.31312 c 0,-1.20835 -1.48298,-2.197 -3.2955,-2.197 -1.81253,0 -3.2955,0.98865 -3.2955,2.197 0,1.20835 1.48297,2.197 3.2955,2.197 1.81252,0 3.2955,-0.98865 3.2955,-2.197 z m 75.60419,-3.52572 c 4.02201,-1.54337 2.51364,-5.26228 -2.13437,-5.26228 -1.7412,0 -3.16582,1.48297 -3.16582,3.2955 0,3.69605 0.40354,3.8458 5.30019,1.96678 z m -114.05169,-5.26228 c 9.67435,-4.93227 17.97299,-5.47932 30.47216,-2.00874 12.52494,3.47771 15.99088,-1.07897 4.51956,-5.94189 -18.35532,-7.78122 -44.87822,-2.93306 -44.87822,8.20331 0,5.06248 -0.56733,5.07698 9.8865,-0.25268 z m 47.82656,-10.22911 c -1.48744,-0.60179 -4.45339,-0.63843 -6.591,-0.0815 -2.13762,0.55703 -0.92061,1.04943 2.70444,1.09419 3.62505,0.0447 5.37399,-0.41096 3.88656,-1.01278 z m 120.24394,-3.79809 c 0,-1.53058 -2.60725,-5.17965 -5.79388,-8.10909 -3.18663,-2.92942 -5.33466,-4.33756 -4.77339,-3.12921 0.56127,1.20835 2.37348,5.34879 4.02712,9.20101 2.88499,6.72065 6.54015,7.85926 6.54015,2.03729 z m -122.28366,-2.57057 c -1.96154,-5.11169 5.86889,-18.35526 10.07066,-17.03247 2.93401,0.92368 2.9753,0.74545 0.2709,-1.16954 -3.38303,-2.39554 -4.31726,-2.06717 -13.83615,4.86329 -8.67788,6.31813 -8.15064,16.75449 0.84646,16.75449 2.67833,0 3.5349,-1.10489 2.64813,-3.41577 z m -16.67489,-18.55423 c 0.75385,-25.55071 1.50713,-27.94008 9.35176,-29.66305 6.18731,-1.35897 10.96879,-6.56186 10.96879,-11.93551 0,-1.55074 -10.87294,-2.34144 -32.19702,-2.34144 -31.01636,0 -32.06409,0.14669 -28.57223,4.00531 1.99362,2.20293 4.25852,8.62915 5.03313,14.2805 0.7746,5.65136 2.01547,10.25319 2.75749,10.22632 2.78378,-0.10088 10.65348,-7.79604 12.06733,-11.79985 2.58346,-7.31594 4.63646,-1.42662 5.00783,14.36575 0.27386,11.64524 -0.40969,15.64245 -2.83405,16.57276 -4.63229,1.77757 -6.28166,-0.86173 -3.00548,-4.80929 5.19754,-6.26268 -0.30082,-6.67582 -5.6794,-0.42675 -3.37537,3.92164 -5.3056,8.89998 -5.3056,13.68387 l 0,7.51961 15.92825,-0.50188 15.92825,-0.50185 0.55095,-18.6745 z m 60.9026,15.48003 c 0.71246,-1.15277 0.64546,-4.68546 -0.14889,-7.85036 -1.02851,-4.09796 -2.12298,-5.07567 -3.80212,-3.39654 -1.29679,1.29683 -4.13741,2.35787 -6.31244,2.35787 -2.17503,0 -3.9546,1.01966 -3.9546,2.26595 0,3.68204 6.38161,5.03685 9.91446,2.10482 1.79715,-1.49148 3.26754,-1.75317 3.26754,-0.58151 0,1.17165 -2.22447,3.20309 -4.94325,4.51429 l -4.94325,2.38407 4.81357,0.14872 c 2.64749,0.0818 5.39653,-0.79451 6.10898,-1.94727 z m 23.13095,-6.8217 c 0,-1.13703 -1.48298,-2.06733 -3.2955,-2.06733 -3.39746,0 -4.36478,2.59237 -1.89057,5.06662 1.75525,1.75524 5.18607,-0.22892 5.18607,-2.99929 z m 54.925,-4.26433 c 0,-1.20835 -0.98865,-2.197 -2.197,-2.197 -1.20835,0 -2.197,0.98865 -2.197,2.197 0,1.20835 0.98865,2.197 2.197,2.197 1.20835,0 2.197,-0.98865 2.197,-2.197 z m -123.032,-4.394 c 3.02087,-2.36296 4.19171,-4.31828 2.60182,-4.34514 -4.16079,-0.0703 -11.38982,4.13099 -11.38982,6.61943 0,3.1905 2.69244,2.49373 8.788,-2.27429 z m 39.04905,1.80471 c -1.65633,-4.96906 -7.53228,-6.83047 -16.17117,-5.12286 l -8.59738,1.69939 6.591,2.90729 c 8.38516,3.69868 19.34211,4.00981 18.17755,0.51618 z m 77.30945,-12.78971 c 0.012,-4.34542 -0.42956,-4.80427 -2.1145,-2.197 -1.71339,2.65127 -2.13629,2.30382 -2.16336,-1.77742 -0.0187,-2.81622 -1.01097,-4.46888 -2.23064,-3.71508 -1.20835,0.74681 -2.17502,6.4899 -2.14815,12.76241 l 0.0489,11.40459 4.2963,-5.4925 c 2.36296,-3.02088 4.30314,-7.96413 4.3115,-10.985 z m -75.33574,4.92918 c -4.14036,-4.14034 -20.01285,-4.84789 -23.79984,-1.0609 -1.50339,1.50338 0.86719,1.89407 7.30227,1.20345 6.39907,-0.68677 10.97022,0.0573 13.91886,2.2657 5.63959,4.22377 7.48621,2.49924 2.57871,-2.40825 z m 85.00073,0.56332 c -1.33708,-3.48441 -5.18849,-4.57161 -5.18849,-1.46469 0,2.32339 2.40151,4.76019 4.69121,4.76019 0.96904,0 1.19281,-1.48298 0.49728,-3.2955 z m -107.2407,-4.58084 c 6.34965,-2.65304 7.59074,-3.95301 5.21157,-5.45887 -7.57155,-4.79218 -24.31095,-1.32497 -26.96244,5.58467 -1.7641,4.59723 10.61848,4.5256 21.75087,-0.12597 z m 83.60656,-2.51365 c -2.23328,-2.23327 -4.07598,1.12902 -2.24361,4.09385 1.38418,2.23966 1.90167,2.2414 2.64585,0.009 0.50881,-1.52644 0.32781,-3.37267 -0.40224,-4.10271 z m -159.51135,0.50349 c 0,-1.81253 -0.98865,-3.2955 -2.197,-3.2955 -1.20835,0 -2.197,1.48297 -2.197,3.2955 0,1.81252 0.98865,3.2955 2.197,3.2955 1.20835,0 2.197,-1.48298 2.197,-3.2955 z m 103.259,1.0985 c 0,-1.20835 -0.43597,-2.197 -0.96883,-2.197 -0.53287,0 -1.57986,0.98865 -2.32667,2.197 -0.74681,1.20835 -0.31083,2.197 0.96882,2.197 1.27967,0 2.32668,-0.98865 2.32668,-2.197 z m 10.985,-7.65553 c 0,-1.5353 1.52487,-4.05699 3.3886,-5.60375 1.86375,-1.54677 2.57833,-3.62258 1.58798,-4.61295 -2.70431,-2.7043 -26.93869,-10.68877 -32.44251,-10.68877 -5.02433,0 -13.78802,7.81237 -11.42002,10.18039 0.751,0.75099 8.57174,4.52284 17.37945,8.38186 15.9935,7.00745 21.5065,7.6081 21.5065,2.34322 z m -56.47732,0.71951 c 4.64216,-2.48441 4.65134,-2.58052 0.40482,-4.23959 -7.86345,-3.0722 -12.0345,-2.24467 -12.0345,2.38761 0,4.96373 4.48175,5.67745 11.62968,1.85198 z m 33.40882,0.34502 c 0.74681,-1.20835 0.39168,-2.197 -0.78917,-2.197 -1.18081,0 -3.95796,-0.67942 -6.17138,-1.50985 -3.54267,-1.32909 -3.66348,-1.06609 -1.0092,2.197 3.42816,4.21444 5.99739,4.70116 7.96975,1.50985 z m 88.87313,-5.61946 c -3.90129,-4.70078 -5.13128,-2.25718 -1.90152,3.77769 1.7357,3.24319 3.08764,4.09203 3.68121,2.31129 0.51595,-1.54783 -0.28491,-4.28788 -1.77969,-6.08898 z m -175.65463,1.49448 c 0,-1.06041 -1.48298,-3.15875 -3.2955,-4.66302 -1.81253,-1.50426 -3.2955,-4.53292 -3.2955,-6.73036 0,-2.19741 -0.98865,-4.60633 -2.197,-5.35314 -3.63676,-2.24764 -2.50621,11.46046 1.25544,15.22206 3.78872,3.78872 7.53256,4.54641 7.53256,1.52446 z m 153.24075,-0.23903 c 3.83387,-0.0419 3.43726,-3.68873 -0.56833,-5.22581 -4.62685,-1.77549 -14.86163,2.44727 -13.04717,5.38309 0.81326,1.31589 3.59153,1.82558 6.17395,1.13262 2.58241,-0.69294 5.93111,-1.27341 7.44155,-1.2899 z m 13.73125,-2.30428 c 0,-4.66177 -7.24008,-13.10471 -11.23768,-13.10471 -5.27099,0 -5.20029,0.9426 0.66584,8.87696 4.71487,6.37721 10.57184,8.71943 10.57184,4.22775 z M 629.59536,270.7111 c 6.86761,-9.01596 7.58544,-10.85988 4.22773,-10.85988 -6.28918,0 -19.94589,17.08716 -16.45042,20.58264 2.4333,2.43327 3.77806,1.36355 12.22269,-9.72276 z m 53.24385,0.12519 c 0.7468,-1.20835 -0.18345,-2.197 -2.06733,-2.197 -1.88384,0 -3.42517,0.98865 -3.42517,2.197 0,1.20835 0.93029,2.197 2.06732,2.197 1.13705,0 2.67837,-0.98865 3.42518,-2.197 z m 8.20696,-6.48289 c 5.72218,-0.83006 11.07737,-2.18261 11.90042,-3.00565 2.4214,-2.42142 -20.5992,-1.71249 -31.218,0.96136 -12.72014,3.20297 -13.0673,7.48283 -0.42363,5.22262 5.13549,-0.91804 14.01903,-2.34829 19.74121,-3.17833 z m -32.46777,-2.15329 c 1.62477,-2.62894 -2.50817,-5.23376 -5.43452,-3.42518 -2.45704,1.51853 -0.84402,5.47036 2.23283,5.47036 1.06571,0 2.50648,-0.92034 3.20169,-2.04518 z m 91.26931,-2.34882 c 0,-1.20835 -0.98865,-2.197 -2.197,-2.197 -1.20835,0 -2.197,0.98865 -2.197,2.197 0,1.20835 0.98865,2.197 2.197,2.197 1.20835,0 2.197,-0.98865 2.197,-2.197 z"
       style="fill:#000000" />
  </g>
</svg>
