<svg xmlns="http://www.w3.org/2000/svg" width="16" height="16" xmlns:v="https://vecta.io/nano"><rect width="16" height="16" rx="2.7" fill="#fff"/><path d="M6.69 10.71c0 .19-.43.45-1.29.78s-1.38.5-1.58.5c-.09 0-.13-.03-.13-.08s.05-.12.15-.2.21-.16.34-.24l.22-.15a1.21 1.21 0 0 0 .35-.68c.04-.25.06-.81.06-1.67v-.56c0-.98-.06-1.73-.18-2.27-.12-.53-.33-.8-.64-.8h-.07c-.03 0-.06.01-.08.03s-.05.02-.09.03c-.03 0-.06.02-.09.02s-.05.01-.08.01c-.02 0-.04 0-.05-.01s-.02-.03-.02-.05c0-.1.11-.26.33-.48.22-.21.48-.41.79-.6s.58-.27.8-.27a.68.68 0 0 1 .48.19c.14.13.25.28.32.46l.17.5c.04.15.06.26.06.35.4-.38.73-.66.99-.83.7-.45 1.46-.68 2.29-.68.59 0 1.1.18 1.53.53a2.06 2.06 0 0 1 .76 1.33c.02.11.03.31.03.6v.83 1.08.98c0 .28.02.51.07.68s.09.27.14.3.1.05.14.07.07.03.07.05c0 .16-.21.42-.62.79s-.71.55-.9.55c-.26 0-.43-.2-.51-.6-.09-.4-.13-.98-.13-1.75l.01-1.05.01-1.11a1.87 1.87 0 0 0-.62-1.42c-.41-.38-.91-.58-1.47-.58a2.73 2.73 0 0 0-.41.03c-.13.02-.24.05-.34.08s-.19.08-.28.13-.16.11-.22.15-.11.1-.17.17l-.13.16-.1.15a.61.61 0 0 0-.07.12c.02.26.03.94.04 2.05l.1 2.2.03.16h0z" fill="#231f20"/></svg>