<?xml version="1.0" encoding="UTF-8"?><svg id="Layer_2" xmlns="http://www.w3.org/2000/svg" width="503.42" height="447.75" viewBox="0 0 503.42 447.75"><g id="Layer_1-2"><path d="M178.22,375.97c0,10.75-24.09,25.41-72.27,43.95-48.19,18.55-77.8,27.83-88.86,27.83-4.89,0-7.33-1.47-7.33-4.39s2.84-6.66,8.55-11.22c5.69-4.56,12.03-9.03,19.03-13.44,7-4.39,11.14-7.23,12.45-8.55,11.06-11.39,17.66-24.17,19.78-38.33,2.11-14.16,3.17-45.5,3.17-94v-31.73c0-55-3.34-97.48-10.02-127.44-6.67-29.94-18.62-44.92-35.88-44.92-.98,0-2.3.17-3.92.48-1.62.33-3.17.81-4.64,1.47s-3.09,1.22-4.88,1.7c-1.8.5-3.5.91-5.12,1.22-1.62.33-3.09.58-4.39.73-1.31.17-2.28-.06-2.94-.72s-.97-1.62-.97-2.94c0-5.86,6.09-14.81,18.31-26.86,12.2-12.03,27.02-23.19,44.42-33.44S95.05,0,107.42,0c10.09,0,19.12,3.59,27.09,10.75s14,15.88,18.06,26.12,7.16,19.53,9.28,27.83c2.11,8.3,3.17,14.89,3.17,19.77,22.47-21.47,41.02-36.94,55.67-46.39C259.77,12.7,302.73,0,349.61,0c33.19,0,61.83,9.94,85.92,29.78,24.09,19.86,38.42,44.77,42.98,74.7.97,6.19,1.62,17.34,1.95,33.45.31,16.12.48,31.58.48,46.39s-.09,35.08-.25,60.8-.23,44.11-.23,55.17c0,15.95,1.22,28.64,3.66,38.08s5.05,15.06,7.81,16.84c2.77,1.8,5.38,3.09,7.81,3.91s3.67,1.72,3.67,2.69c0,8.8-11.56,23.53-34.67,44.2-23.12,20.67-40.05,31-50.78,31-14.33,0-23.94-11.22-28.81-33.69-4.89-22.47-7.33-55.19-7.33-98.16,0-12.03.23-31.73.73-59.08.48-27.34.73-48.17.73-62.5,0-31.56-11.64-58.17-34.92-79.83s-50.86-32.48-82.75-32.48c-8.14,0-15.88.66-23.2,1.95-7.33,1.31-13.67,2.86-19.05,4.64-5.38,1.8-10.58,4.33-15.62,7.58s-9.11,6.11-12.2,8.55-6.34,5.7-9.77,9.77-5.78,7.08-7.08,9.03c-1.31,1.95-3.17,4.8-5.61,8.55s-3.83,5.94-4.16,6.58c.97,14.33,1.7,52.66,2.2,115,.48,62.34,2.36,103.59,5.61,123.78.97,5.22,1.47,8.3,1.47,9.27Z" fill="#fff" stroke-width="0"/></g></svg>