<?xml version="1.0" encoding="UTF-8" standalone="no"?>
<!-- Created with Inkscape (http://www.inkscape.org/) -->

<svg
   xmlns:dc="http://purl.org/dc/elements/1.1/"
   xmlns:cc="http://creativecommons.org/ns#"
   xmlns:rdf="http://www.w3.org/1999/02/22-rdf-syntax-ns#"
   xmlns:svg="http://www.w3.org/2000/svg"
   xmlns="http://www.w3.org/2000/svg"
   xmlns:sodipodi="http://sodipodi.sourceforge.net/DTD/sodipodi-0.dtd"
   xmlns:inkscape="http://www.inkscape.org/namespaces/inkscape"
   width="161.7406mm"
   height="162.71509mm"
   viewBox="0 0 573.09658 576.54952"
   id="svg5996"
   version="1.1"
   inkscape:version="0.91 r13725"
   sodipodi:docname="dropcap-I-1904.svg">
  <defs
     id="defs5998" />
  <sodipodi:namedview
     id="base"
     pagecolor="#ffffff"
     bordercolor="#666666"
     borderopacity="1.0"
     inkscape:pageopacity="0.0"
     inkscape:pageshadow="2"
     inkscape:zoom="0.17851594"
     inkscape:cx="1840.0726"
     inkscape:cy="-585.82493"
     inkscape:document-units="px"
     inkscape:current-layer="g9395"
     showgrid="false"
     fit-margin-top="0"
     fit-margin-left="0"
     fit-margin-right="0"
     fit-margin-bottom="0"
     inkscape:window-width="1916"
     inkscape:window-height="1035"
     inkscape:window-x="4"
     inkscape:window-y="1"
     inkscape:window-maximized="1"
     showguides="true"
     inkscape:guide-bbox="true" />
  <metadata
     id="metadata6001">
    <rdf:RDF>
      <cc:Work
         rdf:about="">
        <dc:format>image/svg+xml</dc:format>
        <dc:type
           rdf:resource="http://purl.org/dc/dcmitype/StillImage" />
        <dc:title></dc:title>
        <dc:creator>
          <cc:Agent>
            <dc:title>j4p4n</dc:title>
          </cc:Agent>
        </dc:creator>
        <cc:license
           rdf:resource="http://creativecommons.org/publicdomain/zero/1.0/" />
      </cc:Work>
      <cc:License
         rdf:about="http://creativecommons.org/publicdomain/zero/1.0/">
        <cc:permits
           rdf:resource="http://creativecommons.org/ns#Reproduction" />
        <cc:permits
           rdf:resource="http://creativecommons.org/ns#Distribution" />
        <cc:permits
           rdf:resource="http://creativecommons.org/ns#DerivativeWorks" />
      </cc:License>
    </rdf:RDF>
  </metadata>
  <g
     inkscape:label="Layer 1"
     inkscape:groupmode="layer"
     id="layer1"
     transform="translate(6314.6401,803.60277)">
    <g
       id="g9379"
       transform="matrix(2,0,0,2,4713.6069,397.98522)">
      <g
         id="g9395">
        <path
           style="fill:#000000"
           d="m -5452.8239,-313.36545 -57.5,-0.5 -0.08,-6.5 c -0.4314,-35.3896 -1.5488,-94.4528 -1.9318,-102.1102 -0.2644,-5.2854 -0.7748,-46.7436 -1.1342,-92.129 l -0.6536,-82.519 2.4098,-1.5788 c 2.1542,-1.4116 15.504,-1.6208 125.8994,-1.9742 67.9192,-0.2174 130.685,-0.124 139.4794,0.208 l 15.9898,0.6032 0.6338,4.5 c 0.742,5.27 2.1092,150.968 2.134,227.4166 0.02,50.481 -0.068,52.9796 -1.8462,54.2794 -1.9424,1.4202 -82.4452,1.5296 -223.4012,0.304 z m 189.4352,-6.8952 c 0.3044,-0.4924 -0.2316,-1.2078 -1.191,-1.5898 -3.4884,-1.3892 -51.8804,-13.3886 -56.7442,-14.0704 -15.4584,-2.1672 -28.9564,-11.1142 -34.9814,-23.187 -5.7586,-11.5392 -6.0016,-15.5236 -5.9588,-97.7576 0.044,-83.4868 0.196,-85.7818 6.446,-96.8562 8.6696,-15.3616 33.7568,-26.1704 50.1642,-21.6134 5.6318,1.5642 8.2628,4.1094 7.4784,7.2342 -0.8934,3.5598 -3.9266,4.3172 -7.363,1.8388 -1.532,-1.105 -4.0228,-2.304 -5.5354,-2.6646 -2.3486,-0.56 -2.75,-0.3428 -2.75,1.488 0,4.8576 5.9782,10.0732 11.546,10.0732 6.2992,0 12.1928,-7.0034 10.818,-12.8548 -0.8246,-3.5094 -5.0616,-7.9716 -9.2362,-9.7272 -1.9176,-0.8064 -6.662,-1.417 -11,-1.4156 -7.1702,0 -28.493,2.676 -39.6278,4.9694 -8.5514,1.761 -47.5378,2.4338 -63.9606,1.1034 -18.1538,-1.4704 -47.036,-6.2742 -58.3152,-9.699 -10.386,-3.1538 -13.1102,-2.8986 -8.2186,0.7696 4.637,3.4774 20.0954,8.3958 32.4944,10.3388 33.3422,5.2248 39.4278,8.3436 44.5134,22.8132 1.882,5.3544 2.0142,8.2026 2.0122,43.3554 -10e-4,20.6936 -0.297,41.1622 -0.6576,45.4858 l -0.6556,7.861 7.3938,-0.02 c 8.4252,-0.02 9.4686,-0.4424 10.423,-4.2446 0.9466,-3.772 3.2832,-3.4332 5.0218,0.7278 1.7,4.0688 1.9908,20.6514 0.4138,23.598 -1.3386,2.501 -4.3466,2.4758 -6.0928,-0.05 -1.2668,-1.833 -1.8988,-1.9088 -8.2374,-0.9878 -3.7758,0.5486 -7.2634,1.2436 -7.75,1.5442 -0.4864,0.3008 -0.8856,6.0328 -0.887,12.7378 0,39.2646 -5.7688,63.1974 -18.303,76.0356 -8.9484,9.1656 -17.9606,12.2598 -33.309,11.4362 -11.284,-0.6054 -17.1024,-2.8588 -18.979,-7.3502 -2.5736,-6.1596 2.5822,-12.8384 8.4686,-10.9702 2.42,0.768 3.7648,4.2996 2.2242,5.8402 -3.6476,3.6476 4.2102,5.3402 8.7118,1.8768 4.454,-3.427 2.319,-11.61 -3.9076,-14.9772 -3.2788,-1.773 -15.0416,-0.995 -18.4196,1.2184 -8.0642,5.2838 -8.6264,18.2088 -1.086,24.9646 3.8238,3.426 10.505,5.7066 19.8632,6.7804 9.5932,1.1008 27.8462,0.5592 38.2388,-1.1344 3.3,-0.5378 8.7,-1.2298 12,-1.5378 3.3,-0.308 10.03,-1.0094 14.9556,-1.5586 12.5494,-1.3998 40.1976,-1.1068 58.5444,0.62 24.2078,2.2786 29.2874,3.0072 62,8.8928 4.125,0.7422 7.811,1.3956 8.191,1.4518 0.38,0.056 0.94,-0.3002 1.2442,-0.7926 z m 25.3004,-7.3706 c 1.0276,-0.7944 1.201,-12.9548 0.3274,-22.9542 -0.034,-0.3958 -3.4252,-2.3594 -7.5344,-4.3632 -8.2418,-4.0188 -9.854,-5.4052 -8.9686,-7.7128 1.0438,-2.7198 3.4156,-2.75 8.6252,-0.11 4.6782,2.3706 5.204,2.4456 6.6958,0.954 1.1312,-1.1308 1.666,-3.642 1.7752,-8.3332 0.086,-3.693 0.4842,-10.7842 0.8852,-15.758 0.915,-11.354 0.068,-12.679 -7.2428,-11.3332 -2.6392,0.486 -5.4736,1.1488 -6.2986,1.4732 -4.6066,1.8112 -12.7856,3.423 -14.8018,2.917 -3.5854,-0.8998 -2.4642,-4.4332 2.167,-6.8294 2.126,-1.1 6.176,-2.2078 9,-2.4616 7.7304,-0.6952 9.6504,-2.931 9.572,-11.147 -0.042,-4.4796 -0.9192,-8.9656 -2.75,-14.0738 -2.5998,-7.2546 -2.8646,-7.5878 -8.1436,-10.25 -10.792,-5.4426 -17.0142,-2.9452 -22.6258,9.0812 -5.6478,12.1038 -5.7438,12.271 -7.6076,13.2686 -0.973,0.5208 -2.9446,0.6518 -4.3812,0.2912 -3.0174,-0.7574 -2.9462,-1.936 0.6046,-10.009 3.2102,-7.2986 2.3192,-9.8752 -4.4936,-12.9942 -6.908,-3.1626 -14.4338,-4.0748 -19.5864,-2.3744 -4.5744,1.5098 -4.8512,2.7884 -1.9756,9.1256 2.9526,6.5068 2.6788,12.3434 -0.728,15.5148 -2.402,2.2362 -3.3828,2.4954 -7.75,2.0492 -2.75,-0.2808 -8.0198,-1.7202 -11.7106,-3.1984 -5.8272,-2.3338 -7.1606,-2.539 -10.129,-1.5594 -5.4474,1.7978 -7.1622,4.4148 -7.148,10.908 0.02,7.2708 0.8876,10.2784 4.0762,14.068 2.1446,2.5488 3.32,3.077 6.8466,3.077 2.3416,0 5.7892,-0.7646 7.6612,-1.699 7.34,-3.6642 13.722,-1.3034 12.426,4.5968 -0.818,3.7242 -2.3986,4.696 -9.0224,5.5474 -10.9324,1.4054 -11.8188,1.7114 -15.2812,5.2768 -3.322,3.4206 -3.4478,3.8168 -2.9506,9.2984 0.6134,6.7664 2.736,10.4132 7.3294,12.593 1.8442,0.875 5.3128,3.316 7.708,5.4244 8.3334,7.3354 16.5682,5.0652 22.2422,-6.1322 2.4822,-4.8984 4.9306,-7.0016 7.2022,-6.1872 1.6232,0.582 1.5644,3.5112 -0.2042,10.1558 -1.2626,4.7442 -1.2488,5.8274 0.118,9.2412 1.2614,3.1522 2.2912,4.0902 5.5694,5.0724 3.3478,1.003 4.7684,0.9366 8.4728,-0.3954 l 4.4506,-1.6004 2.5874,2.904 c 4.484,5.0324 7.5262,3.6066 8.74,-4.096 0.8734,-5.5422 2.9608,-9 5.433,-9 2.6532,0 3.2092,2.3048 1.912,7.9246 -0.9908,4.2926 -0.8912,5.2824 0.8276,8.2254 2.5266,4.3262 5.5608,5.7894 12.3444,5.9536 3.025,0.074 6.85,0.4458 8.5,0.828 3.1496,0.7294 5.1772,0.394 7.2356,-1.1974 z m -17.5574,-13.4842 c -11.2958,-11.3892 -21.632,-20.25 -23.6222,-20.25 -1.375,0 -4.588,5.7216 -6.879,12.25 -0.3378,0.9624 -1.1396,1.75 -1.7816,1.75 -1.8378,0 -0.376,-7.738 3.1286,-16.5602 3.238,-8.1516 3.327,-10.6452 0.706,-19.7826 -1.0776,-3.7572 -9.905,-13.6572 -12.1774,-13.6572 -0.64,0 -1.0526,2.842 -1.0526,7.25 0,8.6922 -2.4282,13.603 -10.424,21.0822 -2.801,2.6198 -5.8156,5.867 -6.6992,7.2156 -1.572,2.399 -4.3768,3.3714 -4.3768,1.5172 0,-0.5142 0.464,-2.1554 1.0314,-3.6474 l 1.0312,-2.7126 -6.2812,0.6298 c -3.4548,0.3464 -7.294,0.9154 -8.5314,1.2642 -2.9156,0.8218 -3.1574,-2.1762 -0.25,-3.099 1.1,-0.3492 2,-1.0544 2,-1.5674 0,-1.1588 -4.2922,-1.1654 -9.25,-0.02 -2.9214,0.6784 -3.75,0.5704 -3.75,-0.4888 0,-3.4718 10.8256,-5.2778 20.322,-3.3904 5.932,1.1792 6.711,1.1254 9.7974,-0.6772 1.844,-1.077 4.7092,-3.8896 6.3668,-6.2502 2.7318,-3.8904 3.0092,-5.0088 2.965,-11.952 -0.032,-4.8464 -0.6562,-9.0408 -1.7026,-11.4188 l -1.654,-3.759 -5.921,3.009 c -6.6262,3.367 -12.2042,3.8584 -17.7058,1.5598 -1.9072,-0.797 -3.4678,-2.147 -3.4678,-3 0,-1.8162 1.2336,-1.925 6.0066,-0.53 2.451,0.7164 4.9322,0.6814 8.3154,-0.118 4.0084,-0.946 5.0966,-1.714 6.45,-4.5522 0.9392,-1.9694 2.6162,-3.6622 3.963,-4.0002 2.5356,-0.6364 4.616,-3.9568 5.7356,-9.1546 1.1136,-5.1694 3.1028,-3.329 2.603,2.408 -0.2346,2.6922 -0.4596,6.47 -0.5,8.395 l -0.074,3.5 7,-0.064 c 8.4958,-0.078 15.4158,-2.174 27.9686,-8.4696 9.8718,-4.951 12.0592,-4.7162 6.2814,0.674 -6.2602,5.84 -17.204,10.6484 -27.0308,11.8762 -3.16,0.3948 -5.9536,1.0542 -6.2076,1.4654 -0.254,0.411 1.7916,2.6478 4.5462,4.9704 2.7544,2.3226 6.7748,6.6144 8.934,9.5372 5.1424,6.9612 10.6704,9.3372 17.6396,7.5824 2.5772,-0.649 5.6144,-1.8304 6.7496,-2.6256 2.9876,-2.0926 3.9212,-1.7858 3.2084,1.0544 -0.7408,2.9512 -0.413,3 5.8422,0.8686 3.8554,-1.3138 4.9434,-1.3802 5.5856,-0.3408 1.233,1.9948 0.03,3.9256 -2.8774,4.6186 -1.452,0.3462 -3.204,1.0738 -3.8938,1.6172 -2.3688,1.8662 -18.587,2.1488 -23.682,0.4128 -5.4576,-1.8596 -6.2402,-1.0946 -5.0998,4.9842 0.5338,2.8454 3.0406,6.082 11.4184,14.7426 10.2636,10.6098 14.6528,15.8102 18.4388,21.8468 3.2664,5.2078 -0.439,2.7764 -9.1432,-6 z m -238.9868,12.5 c 1.1716,-0.9306 1.7284,-3.9332 2.1786,-11.75 0.3326,-5.775 1.5104,-13.8446 2.6174,-17.9324 2.8386,-10.4826 2.7704,-10.8138 -2.7078,-13.162 -6.0218,-2.5814 -6.2596,-2.286 -9.6712,12.0108 -4.2732,17.9076 -5.1498,27.3432 -2.9112,31.3336 0.6922,1.2338 8.7976,0.8476 10.4942,-0.5 z m 65.959,-20.8304 c 3.0882,-1.6528 5.0578,-7.3488 4.2966,-12.4252 -0.7162,-4.7746 -4.1394,-8.9206 -6.2756,-7.6004 -1.022,0.6316 -0.826,1.7068 0.9214,5.0596 1.7344,3.3276 2.0132,4.835 1.2764,6.9018 -0.835,2.3422 -1.4714,2.6446 -5.5658,2.6446 -5.7128,0 -6.5332,0.7372 -4.4158,3.9688 1.8112,2.7642 6.1138,3.4036 9.7628,1.4508 z m -14.1504,-12.8844 c 0,-2.117 -3.4164,-4.514 -5.0206,-3.5224 -0.5388,0.3328 -0.9794,1.7036 -0.9794,3.0462 0,2.0456 0.486,2.441 3,2.441 2.3154,0 3,-0.4484 3,-1.9648 z m -3.974,-8.4534 c 21.9538,-4.6544 37.0376,-18.7688 34.502,-32.2846 -0.8692,-4.6332 -2.403,-3.8392 -6.1796,3.1992 -1.7332,3.2304 -3.9832,6.9712 -5,8.3128 -1.0166,1.3416 -2.0734,2.7462 -2.3484,3.1214 -0.275,0.375 -2.667,2.3172 -5.3156,4.316 -13.8354,10.4406 -36.428,11.0248 -54.9858,1.422 -6.781,-3.509 -9.7196,-6.6724 -11.66,-12.5518 -1.3742,-4.1638 -1.0128,-8.0812 1.456,-15.7812 0.5274,-1.6448 0.148,-2.457 -1.5834,-3.3832 -1.972,-1.0554 -2.5172,-0.9222 -4.0692,0.9944 -4.4838,5.5372 -4.9418,14.9328 -1.1098,22.7592 7.3786,15.069 34.2368,24.552 56.2938,19.8758 z m 96.3922,-12.1888 c 2.0792,-0.7978 2.0392,-5.2802 -0.054,-6.0836 -1.7412,-0.668 -4.5118,0.6338 -5.0992,2.396 -0.194,0.5844 0.373,1.7896 1.2618,2.6786 1.841,1.8408 1.771,1.8228 3.8914,1.009 z m -91.4182,-1.3688 c 0,-0.5368 -0.8984,-2.4492 -1.9962,-4.25 -1.431,-2.347 -1.9974,-5.0432 -2,-9.5214 0,-5.7628 0.2734,-6.5538 3.5732,-10.2062 2.5666,-2.841 4.7556,-4.1924 7.75,-4.7846 3.2044,-0.6338 4.173,-1.282 4.173,-2.7936 0,-3.0946 -6.6454,-2.4394 -11.8372,1.1668 -9.4578,6.5694 -11.5914,21.122 -4.4154,30.1148 1.1776,1.4758 4.7526,1.682 4.7526,0.2742 z m -33.8392,-7.8706 c 10.6648,-15.265 31.398,-32.7122 48.231,-40.5862 11.7946,-5.5172 21.4022,-8.1462 36.9164,-10.1014 4.6946,-0.5916 4.8008,-0.681 4.5,-3.786 l -0.3082,-3.18 -6.5,0.3046 c -9.7612,0.4576 -19.9652,2.7924 -31.8336,7.284 -15.2106,5.7564 -14.3962,5.5936 -14.0028,2.8006 0.8812,-6.2586 -9.6714,1.6454 -29.2798,21.9308 -14.157,14.6458 -18.8838,21.0832 -18.8838,25.7178 0,2.542 3.5854,5.6824 5.9682,5.2274 0.8074,-0.154 3.1442,-2.6794 5.1926,-5.6116 z m 17.6166,-3.7104 c 2.8858,-2.0212 2.816,-4.0082 -0.2104,-5.9912 -1.8924,-1.24 -2.892,-1.3484 -4.5,-0.4878 -2.546,1.3626 -2.7368,5.5464 -0.317,6.9556 2.3114,1.3464 2.4428,1.3338 5.0274,-0.4766 z m 23.1048,-1.4432 c 2.5036,0 12.3582,-9.1412 16.04,-14.8788 3.4428,-5.3652 5.4988,-14.435 3.9378,-17.3712 -1.9602,-3.6872 -4.1108,-1.0902 -5.3296,6.4358 -0.9572,5.9098 -7.8652,15.2866 -14.0318,19.0464 -4.9478,3.0168 -7.1346,5.7984 -5.692,7.241 0.3238,0.324 1.2118,0.35 1.973,0.058 0.7612,-0.292 2.1574,-0.531 3.1026,-0.531 z m -48.0878,-16.1706 c 0.174,-0.9062 -0.5472,-2.476 -1.604,-3.4884 -3.0536,-2.9262 -6.7304,-9.3894 -8.6582,-15.22 -2.3642,-7.1502 -1.6612,-17.0394 1.985,-27.9218 2.9912,-8.9272 2.6446,-10.9468 -1.5284,-8.9026 -3.4842,1.7068 -5.9006,7.2332 -7.7672,17.7646 -1.3424,7.5736 -1.4022,10.002 -0.369,15.004 1.7982,8.706 4.272,13.7664 9.6458,19.732 4.7262,5.2466 7.6628,6.32 8.296,3.0322 z m 163.2056,-7.7194 c 0,-2.901 -8.2448,-13.4434 -13.4202,-17.16 -2.5428,-1.8262 -4.4664,-3.79 -4.275,-4.3644 0.192,-0.5744 2.8522,-2.5074 5.9128,-4.2958 7.2064,-4.2108 17.7824,-17.9832 17.7824,-23.1566 0,-1.686 -3.5592,-4.0848 -4.4134,-2.9746 -0.144,0.188 -1.645,2.3664 -3.3348,4.8414 -6.9282,10.1482 -16.58,17.0028 -26.9028,19.106 -6.0378,1.2302 -6.1618,1.322 -6.749,4.9942 -0.7852,4.9096 0.044,6.8018 3.2604,7.4444 5.1488,1.0286 13.7016,5.9768 18.1404,10.4954 5.4338,5.5314 7.6388,6.8896 11.2492,6.9296 2.0406,0.022 2.75,-0.457 2.75,-1.8596 z m -156.2184,-14.7738 c 12.9296,-9.2264 27.7588,-13.2632 40.6254,-11.0594 11.4474,1.961 15.5456,-2.4712 5.4008,-5.8406 -6.0578,-2.0122 -17.3026,-2.226 -24.8078,-0.4716 -10.8382,2.5332 -28.5866,12.3932 -30.468,16.9262 -0.7556,1.8206 0.3118,5.1092 1.6584,5.1092 0.5806,0 3.9966,-2.0986 7.5912,-4.6638 z m 238.0558,1.7854 c 0.7358,-0.4662 1.1858,-1.9218 1,-3.2346 -0.2524,-1.7854 -0.964,-2.387 -2.8238,-2.387 -2.8274,0 -3.8958,2.7322 -1.9738,5.048 1.383,1.6664 1.9408,1.7506 3.7976,0.5736 z m -12.4192,-9.7286 c 2.0732,-0.7956 2.0406,-5.003 -0.046,-5.8032 -2.0006,-0.7678 -4.3732,1.0584 -4.3732,3.366 0,2.8456 1.3758,3.6046 4.4182,2.4372 z m -23.981,-5.3466 c 7.7484,-5.724 8.271,-9.132 2.4278,-15.8312 -3.6456,-4.1798 -3.6068,-5.2152 0.194,-5.2152 2.3004,0 4.3724,1.2412 8.3466,5 3.0076,2.8444 6.2238,5 7.4602,5 3.1822,0 8.7842,-3.9018 15.9764,-11.1274 l 6.343,-6.3726 -0.615,-8.857 c -0.7278,-10.4796 -1.7554,-13.022 -4.882,-12.0788 -1.204,0.3634 -3.314,1.6434 -4.689,2.8446 -3.6962,3.229 -11.276,6.5912 -14.8596,6.5912 -1.7272,0 -3.1404,0.3906 -3.1404,0.8682 0,1.111 10.692,4.1318 14.6244,4.1318 1.6464,0 3.8668,0.6664 4.9344,1.481 1.6802,1.2818 1.7396,1.616 0.4412,2.4846 -2.6266,1.7576 -9.9298,1.1152 -17.661,-1.5532 -4.1234,-1.4232 -7.6914,-2.3932 -7.929,-2.1558 -0.2376,0.2376 0.6928,2.0894 2.0676,4.1152 3.713,5.4716 5.5224,9.2766 5.5224,11.6138 0,3.4708 -3.7442,0.6174 -6.2886,-4.7926 -3.1172,-6.6274 -14.1612,-17.9678 -18.6846,-19.1858 -4.8788,-1.3138 -17.0268,2.197 -17.0268,4.9206 0,0.4822 1.2374,1.3154 2.75,1.8518 6.4506,2.2876 13.6526,13.1228 11.8482,17.8252 -0.9216,2.4018 -2.0754,1.5782 -6.42,-4.5822 -3.7548,-5.3246 -4.8128,-6.1512 -9.6836,-7.5672 -3.0076,-0.8744 -5.8864,-1.3312 -6.3976,-1.0154 -0.511,0.3158 -2.108,0.126 -3.549,-0.4218 -2.4754,-0.9412 -2.584,-1.2666 -1.9682,-5.9082 0.5886,-4.4366 0.4226,-5.0578 -1.714,-6.4164 -1.3012,-0.8274 -5.1782,-1.816 -8.6158,-2.1972 -4.3648,-0.4838 -6.25,-1.1156 -6.25,-2.0946 0,-0.771 0.5626,-1.4362 1.25,-1.4784 0.6876,-0.042 2.15,-0.2606 3.25,-0.4858 4.4174,-0.9046 10.9402,0.8488 13.801,3.7096 1.569,1.569 3.106,2.8528 3.4152,2.8528 1.4534,0 -0.9818,-10.9708 -3.748,-16.8848 -4.9302,-10.541 -8.3412,-13.1576 -19.0654,-14.6246 -10.678,-1.4608 -13.771,-4.4906 -4.5844,-4.4906 8.0004,0 14.7266,2.4086 20.2336,7.2454 l 4.844,4.2546 -1.948,-3.3882 c -1.0714,-1.8636 -4.5954,-5.4636 -7.831,-8 -12.3818,-9.7064 -16.1632,-13.899 -14.2558,-15.8064 0.5766,-0.5766 9.496,6.264 17.728,13.5958 2.718,2.4208 5.1732,4.1696 5.4564,3.8864 0.2832,-0.283 0.02,-3.761 -0.6044,-7.7288 -0.6156,-3.9676 -0.8174,-7.5158 -0.4484,-7.8848 2.0106,-2.0108 6.3036,11.1336 8.6794,26.576 1.2944,8.4126 2.0092,9.6482 3.7256,6.441 1.525,-2.8496 10.1922,-10.904 15.5552,-14.4554 7.191,-4.762 8.579,-7.1796 9.6688,-16.8412 1.0664,-9.455 2.4476,-13.725 3.9528,-12.2198 1.3084,1.3084 1.4752,5.5106 0.519,13.0754 -0.5308,4.2002 -0.4456,6.25 0.26,6.25 2.6056,0 8.7652,-8.34 13.4786,-18.25 2.812,-5.9126 5.4628,-10.75 5.8904,-10.75 2.2862,0 -2.0616,15.7676 -6.19,22.4472 -1.118,1.8088 -2.0326,3.5732 -2.0326,3.9208 0,0.3476 2.1376,0.6768 4.75,0.7316 6.3794,0.134 9.675,1.1532 10.0516,3.1086 0.2536,1.3166 -0.9644,1.745 -6.4948,2.285 -6.982,0.6816 -19.2432,3.9438 -22.8068,6.0678 -10.572,6.3014 -17.2042,11.3728 -21.2848,16.276 -4.7316,5.6858 -8.007,11.7044 -6.9468,12.7648 0.2958,0.2958 2.2688,-0.344 4.3846,-1.4218 4.3632,-2.2224 13.8006,-5.18 16.5286,-5.18 1.1076,0 1.8184,0.7286 1.8184,1.8642 0,3.0406 8.0584,5.6358 17.5,5.6358 6.6766,0 8.992,-0.4644 13.997,-2.8078 8.6348,-4.0428 10.503,-6.095 10.503,-11.5378 0,-9.3082 -6.3462,-10.9684 -13.808,-3.612 -4.8132,4.7452 -8.3618,5.5826 -9.0204,2.1286 -1.0918,-5.7268 4.0466,-10.6688 15.737,-15.136 7.1744,-2.7416 9.5436,-5.2978 8.9306,-9.6358 -0.2504,-1.7704 -1.7142,-3.0544 -5.5856,-4.8992 -2.8856,-1.375 -5.248,-2.7636 -5.25,-3.0858 0,-0.3224 1.6816,-2.749 3.7412,-5.3926 3.3232,-4.2656 3.8222,-5.663 4.432,-12.4142 0.3778,-4.184 1.008,-9.5654 1.4004,-11.9586 0.8676,-5.2928 -0.3478,-6.414 -6.0772,-5.6058 -8.768,1.2366 -9.9668,1.8212 -16.6984,8.1432 -3.7808,3.551 -7.1954,6.2972 -7.5878,6.103 -0.3926,-0.194 -1.9328,-0.9652 -3.4228,-1.7132 -2.351,-1.18 -3.0432,-1.1408 -5.2372,0.2968 -1.3904,0.911 -3.4508,3.4652 -4.5788,5.676 -1.2822,2.5138 -3.3476,4.6382 -5.5128,5.6706 -4.066,1.939 -3.8858,1.3584 -3.9286,12.6546 -0.028,7.3342 -0.3372,9.0686 -1.7836,9.995 -2.8334,1.8148 -4.8424,-0.331 -7.2412,-7.7342 -1.2076,-3.7268 -3.3576,-7.9382 -4.778,-9.3586 -2.3188,-2.3186 -3.5894,-2.6436 -12.4322,-3.1794 -8.884,-0.5382 -10.3458,-0.9154 -14.9116,-3.8468 -2.7842,-1.7876 -6.0236,-3.25 -7.1988,-3.25 -2.817,0 -5.1862,4.6524 -5.1948,10.2004 0,4.358 -1.583,7.5424 -5.7434,11.6034 -6.0888,5.9432 0.2642,16.9438 10.7934,18.6896 6.2018,1.0282 8.1366,2.23 7.7672,4.8242 -0.2862,2.0104 -0.8732,2.1824 -7.4528,2.1824 -5.619,0 -7.5916,0.4062 -9.25,1.905 -2.7988,2.5296 -2.773,8.4514 0.066,15.3034 l 2.1748,5.247 -2.6748,5.2866 c -1.4712,2.9078 -2.6748,5.7586 -2.6748,6.3352 0,1.7314 5.247,6.211 9.2178,7.8698 7.3116,3.0542 10.7536,1.947 17.7126,-5.697 5.5996,-6.151 9.4412,-6.2604 15.8196,-0.4508 2.8824,2.6254 2.8316,4.5572 -0.2992,11.4022 -2.6948,5.8912 -2.6448,10.0628 0.148,12.3808 1.1596,0.9626 2.633,0.9416 6.9712,-0.1 l 5.5006,-1.3196 3.7146,3.5382 c 7.3808,7.0308 10.1104,7.1544 18.6516,0.8446 z m 37.3864,-3.3784 c 0.2938,-2.5574 0.066,-2.7854 -2.4916,-2.4916 -3.099,0.3562 -4.4726,3.476 -2.1804,4.9526 2.3398,1.5072 4.3368,0.4552 4.672,-2.461 z m -240.4888,-5.8342 c 1.287,-2.0436 -0.6698,-4.8338 -3.3898,-4.8338 -2.2942,0 -3.5048,3.6204 -1.8696,5.5908 1.513,1.8232 3.8462,1.4874 5.2594,-0.757 z m 13.4816,-0.5838 c -0.3648,-3.1706 -4.3914,-4.521 -5.4278,-1.8202 -0.9902,2.5802 0.38,4.5702 3.1464,4.5702 2.244,0 2.5548,-0.3746 2.2814,-2.75 z m 40.0858,-3.3992 c 2.7024,-7.7524 0.4158,-17.031 -5.2372,-21.2516 -3.5042,-2.6164 -4.4156,-1.3964 -2.2886,3.0638 1.418,2.9738 1.608,5.0906 1.0408,11.593 -0.547,6.2706 -0.3998,8.1412 0.6944,8.8342 2.6852,1.7004 4.687,0.9262 5.7906,-2.2394 z m 77.4872,1.5768 c 0.9576,-2.4954 -1.2274,-5.5914 -3.6968,-5.2382 -2.2256,0.3182 -3.2936,2.8022 -2.3086,5.369 0.7438,1.9384 5.249,1.8404 6.0054,-0.13 z m -92.2608,-6.6776 c 1.765,-4.1826 1.4412,-12.691 -0.6956,-18.286 -2.3664,-6.1966 -1.4762,-7.8606 3.8348,-7.1686 2.3276,0.3034 6.8482,1.135 10.0454,1.8478 6.652,1.4832 9.358,0.5592 13.0896,-4.4692 2.6088,-3.5154 2.739,-11.6898 0.2614,-16.407 -2.4806,-4.723 -6.4904,-6.3736 -15.9964,-6.5852 -7.9574,-0.178 -8.1754,-0.2476 -8.4652,-2.734 -0.186,-1.6014 0.479,-3.2546 1.7864,-4.4378 1.806,-1.6344 2.521,-1.7274 5.3682,-0.6978 8.1948,2.9632 13.608,0.9664 16.0898,-5.9348 l 1.7814,-4.9542 -3.2656,-10.0378 c -2.169,-6.6666 -3.9782,-10.5046 -5.3866,-11.4274 -2.4792,-1.6244 -15.2158,-4.458 -20.038,-4.458 -2.583,0 -4.053,0.8224 -6.5462,3.662 -3.4178,3.8926 -3.435,4.0924 -1.4052,16.3936 1.2444,7.5416 -6.4332,7.761 -8.5206,0.2434 -1.342,-4.8322 -1.3308,-7.8056 0.048,-12.7704 0.9066,-3.266 0.8124,-4.5094 -0.5306,-7 -2.8946,-5.3676 -6.7502,-6.827 -19.7398,-7.4712 -13.2566,-0.6576 -15.4482,-1.7342 -16.4644,-8.0882 -0.9364,-5.856 -2.0532,-6.9062 -4.3862,-4.1246 -3.3136,3.9504 -4.3722,9.7768 -3.1882,17.5442 0.976,6.4026 0.8964,7.0964 -1.1272,9.8338 -2.2806,3.0846 -2.8654,9.5102 -1.3712,15.0628 0.881,3.2732 3.2772,4.3694 13.4586,6.1562 4.0142,0.7046 8.153,2.079 9.25,3.0718 2.3796,2.1536 2.5674,6.2106 0.4284,9.264 -1.932,2.7586 -4.5716,2.843 -6.9432,0.2226 -1.9918,-2.2008 -7.344,-2.689 -10.5674,-0.964 -2.501,1.3386 -4.53,6.2686 -5.3752,13.0612 -0.3698,2.9716 -1.3474,8.8716 -2.1722,13.1114 -1.7752,9.1224 -1.3608,10.2944 5.1686,14.6192 5.6526,3.7442 14.4828,5.2086 18.4002,3.0516 1.4748,-0.812 3.9534,-4.2214 5.891,-8.1034 3.3774,-6.7664 5.4838,-8.4412 9.1526,-7.2768 2.2454,0.7126 3.7712,5.1734 2.3996,7.0154 -3.8352,5.1504 -4.7588,7.1934 -5.1656,11.4262 -0.381,3.9654 -0.086,5.2048 1.6524,6.9432 2.3712,2.3712 7.8146,2.8142 12.881,1.048 2.5264,-0.8806 3.7358,-0.713 6.8992,0.9558 5.635,2.973 7.8418,2.7076 9.4644,-1.1378 z m -59.6676,-24.813 c -0.3614,-0.5848 1.9746,-3.858 5.191,-7.274 3.2164,-3.416 7.077,-7.649 8.579,-9.4068 1.502,-1.758 4.6314,-4.1658 6.9544,-5.3508 3.6036,-1.8384 5.2328,-2.0608 11.1016,-1.5154 l 6.8784,0.6394 -0.6842,-3.2648 c -1.9952,-9.5218 -7.4676,-16.4818 -19.4812,-24.7766 -7.612,-5.2558 -12,-12.426 -12,-19.6082 0,-7.7738 3.2472,-6.3362 4.4502,1.9702 0.5916,4.086 1.5212,5.6612 5.901,10 2.8594,2.8324 8.615,7.85 12.7906,11.15 4.659,3.682 8.4696,7.6418 9.864,10.25 1.2496,2.3374 2.7856,4.25 3.4132,4.25 0.6274,0 2.5326,-1.4626 4.2334,-3.25 1.7008,-1.7876 4.9894,-4.375 7.3078,-5.75 7.4764,-4.4338 12.4642,-8.503 14.761,-12.0422 3.544,-5.4606 4.5974,-6.5016 5.0886,-5.0284 0.2314,0.694 -0.8198,3.7134 -2.336,6.7098 -2.7222,5.3806 -7.0608,9.7842 -12.289,12.4736 -9.1566,4.7104 -15.1848,11.0844 -15.1848,16.0562 0,2.5632 3.564,9.8954 5.3656,11.0386 0.6132,0.389 2.1284,0.044 3.3672,-0.7682 4.2952,-2.8142 16.2672,-3.1236 16.2672,-0.4204 0,0.5396 -1.6874,1.0258 -3.75,1.0806 -2.0624,0.054 -4.875,0.4206 -6.25,0.8128 -2.2296,0.636 -2.4656,1.166 -2.1826,4.9004 l 0.3176,4.1872 -4.7518,0 c -2.7936,0 -6.5516,0.8714 -9.1196,2.1144 -2.4024,1.163 -4.6254,1.857 -4.9402,1.5424 -0.3148,-0.3148 0.6088,-1.9758 2.0522,-3.6912 3.3588,-3.992 3.3224,-6.9404 -0.126,-10.1564 -4.1064,-3.83 -6.5896,-4.8092 -12.1952,-4.8092 -4.9568,0 -5.2712,0.182 -13.3158,7.75 -4.5314,4.2624 -8.464,8.0202 -8.739,8.3502 -0.593,0.7122 -4.6484,2.8998 -5.3752,2.8998 -0.2788,0 -0.8024,-0.4784 -1.1638,-1.063 z m 88.2922,24.9098 c 1.6112,-1.6114 -0.271,-4.8468 -2.8198,-4.8468 -2.2106,0 -3.4598,2.1858 -2.5718,4.5 0.6824,1.7784 3.762,1.9764 5.3916,0.3468 z m 85.7468,-96.8468 c 0,-1.7864 -0.606,-2.5864 -2.1228,-2.8028 -2.3166,-0.3306 -3.6792,1.8524 -2.7186,4.3556 0.9956,2.5944 4.8414,1.3608 4.8414,-1.5528 z m 47.9972,-16.991 c 0.8158,-2.5708 -0.112,-4.009 -2.5876,-4.009 -2.19,0 -3.4326,2.1948 -2.548,4.5 0.8366,2.1798 4.3958,1.8394 5.1356,-0.491 z m 14.4922,-0.4962 c 1.6616,-2.0022 0.5548,-4.5128 -1.9894,-4.5128 -1.1346,0 -2.324,0.6808 -2.6432,1.5128 -0.5746,1.4974 1.1864,4.4872 2.6432,4.4872 0.4154,0 1.3106,-0.6692 1.9894,-1.4872 z m -111.021,-2.9012 c 5.6098,-2.9332 12.0934,-3.4468 14.0316,-1.1116 1.7212,2.0738 3,1.8758 3,-0.4648 0,-4.6218 -7.9108,-5.2986 -16.6256,-1.4224 -5.1122,2.274 -6.7826,2.5418 -12.8744,2.0652 -3.85,-0.3012 -9.7,-1.4658 -13,-2.5882 -10.0318,-3.4118 -23.9554,-2.2368 -29.304,2.473 -3.1818,2.8018 -1.4376,3.2638 3.9318,1.0416 6.0004,-2.4834 14.1294,-2.6828 21.8744,-0.5366 15.9524,4.4206 21.358,4.5222 28.9662,0.5438 z"
           id="path11361"
           inkscape:connector-curvature="0" />
      </g>
    </g>
  </g>
</svg>
